<?xml version="1.0" ?>
<!-- Uploaded to: SVG Repo, www.svgrepo.com, Generator: SVG Repo Mixer Tools -->
<svg fill="#000000" width="800px" height="800px" viewBox="0 0 32 32" xmlns="http://www.w3.org/2000/svg">
<title/>
<g data-name="Layer 2" id="Layer_2">
<path d="M16,22a6.51,6.51,0,0,0,6.5-6.5v-5a6.5,6.5,0,0,0-13,0v5A6.51,6.51,0,0,0,16,22ZM11.5,10.5a4.5,4.5,0,0,1,9,0v5a4.5,4.5,0,0,1-9,0Z"/>
<path d="M30,26H29V15.5A3.5,3.5,0,0,0,25.5,12V10.5a9.5,9.5,0,0,0-19,0V12A3.5,3.5,0,0,0,3,15.5V26H2a1,1,0,0,0-1,1v3a1,1,0,0,0,1,1H30a1,1,0,0,0,1-1V27A1,1,0,0,0,30,26ZM8.5,10.5a7.5,7.5,0,0,1,15,0v5a7.5,7.5,0,0,1-15,0ZM5,15.5A1.5,1.5,0,0,1,6.5,14v1.5a9.5,9.5,0,0,0,19,0V14A1.5,1.5,0,0,1,27,15.5V26H5ZM29,29H3V28H29Z"/>
</g>
</svg>