<svg xmlns="http://www.w3.org/2000/svg" height="30" fill="none" viewBox="0 0 109 50"><g fill="#343F55" clip-path="url(#a)"><path d="m98.3559 27.4641-23.3216-3.6545 3.0918 13.8969 20.2298-10.2424Z"/><path d="M98.3565 27.4642 80.783 3.0478 75.0396 23.814l23.3169 3.6501ZM74.4938 23.5325 56.0801 0l24.1131 2.8805-5.6994 20.652ZM66.1072 13.699 55.8824 4.0634h2.6915l7.5333 9.6356ZM103.33 15.5945l-4.327 11.7377-7.0147-9.7015 11.3417-2.0362ZM80.849 37.0029l16.9801-6.8209.7124-2.1681-17.6925 8.989ZM67.268 49.8752l7.2738-25.5159 3.6899 16.6015-10.9637 8.9144ZM104.007 15.6869l-1.786 4.8464 6.438-.1056-4.652-4.7408ZM0 17.6308c.3122.0264.6289.0836.9631.0836.3342 0 .607-.0572.9631-.0836v10.3216c1.016-1.7284 2.2957-2.8674 4.178-2.8674 3.4038 0 4.8638 3.3687 4.8638 6.4648 0 3.7074-1.979 7.2564-5.4488 7.2564a3.808 3.808 0 0 1-3.417-1.966c-.5806.5101-1.0951 1.1216-1.6448 1.6755H.0176L0 17.6308Zm1.8822 15.181c0 3.0082 1.2754 5.1059 3.3731 5.1059 2.7222 0 3.5974-3.6589 3.5974-6.2536 0-3.0125-.9939-5.3829-3.3511-5.4093-2.753-.0219-3.6193 3.2368-3.6193 6.5616M19.8471 24.3065l-2.0493 2.6386c1.9262 2.8146 3.9228 5.572 5.8578 8.4219l1.9526 3.0784v.1539c-.4794-.031-.9148-.0924-1.3193-.0924-.4046 0-.9148.0614-1.3458.0924-.5321-.9853-1.0598-1.8954-1.6623-2.7882l-5.2774-7.8061c-.1187-.1231-.4045-.2199-.4045-.0924v10.6867c-.3871-.031-.7257-.0924-1.0599-.0924-.3343 0-.7212.0614-1.0599.0924V17.6306c.3387.0264.7037.0924 1.0599.0924.3562 0 .6728-.066 1.0599-.0924v9.464c0 .1847.3606.0616.598-.1847.4581-.4749.887-.9772 1.2842-1.504l5.9326-7.784c.3122.0263.6245.0923.9631.0923.3386 0 .5981-.066.9411-.0923l-5.4708 6.6846ZM35.8066 36.2376c0 1.0905-.0703 1.6448 1.35 1.284v.6114a3.8908 3.8908 0 0 1-.7255.2771c-1.2533.2507-2.2912.0262-2.4847-1.614l-.2157.2418a4.472 4.472 0 0 1-3.5709 1.7592c-1.7063 0-3.2015-1.3458-3.2015-3.4085 0-3.1795 2.1988-3.5973 4.4549-4.0151 1.9087-.3606 2.5594-.5277 2.5594-1.869 0-2.0669-1.0115-3.2632-2.8189-3.2632a3.0128 3.0128 0 0 0-2.8673 1.9219h-.2639v-1.548a6.245 6.245 0 0 1 3.9008-1.5305c2.5287 0 3.9051 1.5305 3.9051 4.6837l-.0218 6.4692Zm-1.9262-4.6046-.8487.1935c-1.6405.3606-4.0988.6377-4.0988 3.184 0 1.7591.8795 2.6385 2.3571 2.6385a3.0045 3.0045 0 0 0 1.9528-1.0728c.1758-.2023.6595-.6775.6595-.8798l-.0219-4.0634ZM40.1026 35.8683c.5716 1.0951 1.636 2.0758 2.7706 2.0758a2.4928 2.4928 0 0 0 1.698-.7915 2.4928 2.4928 0 0 0 .668-1.7507c0-3.7643-5.6951-1.3192-5.6951-6.1918 0-2.6739 1.7592-4.1208 3.9271-4.1208a5.088 5.088 0 0 1 2.7268.7213 14.4127 14.4127 0 0 0-.5719 1.979h-.2199c-.3167-.9192-1.1565-1.8427-2.0493-1.8427-1.2049 0-2.1987.8136-2.1987 2.322 0 3.5666 5.6951 1.6668 5.6951 6.1304 0 2.9863-2.3134 4.3977-4.4419 4.3977a5.5967 5.5967 0 0 1-3.0081-.8794c.216-.6689.3849-1.3523.5058-2.0451l.1935-.0042ZM50.0997 17.6308c.3209.0264.6333.0836.9673.0836.3343 0 .6069-.0572.9676-.0836v10.1544c.8445-1.7019 2.168-2.7002 3.8834-2.7002 2.7967 0 3.883 1.9175 3.883 5.4357v8.0787c-.3651-.0308-.6464-.0837-.9673-.0837-.3213 0-.651.0572-.9677.0837v-7.4411c0-3.0784-.6199-4.6308-2.6738-4.6308-2.1726 0-3.1576 1.5656-3.1576 4.4637v7.6082c-.3607-.0308-.6464-.0837-.9676-.0837-.3209 0-.6418.0572-.9673.0837V17.6308Z"/></g><defs><clipPath id="a"><path fill="#fff" d="M0 0h108.824v50H0z"/></clipPath></defs></svg>