<svg xmlns="http://www.w3.org/2000/svg" height="30" fill="none" viewBox="0 0 85 35"><path fill="#343F55" d="M15.5938 14.0023c-.3599-.7125-.5502-1.252-.8728-1.7009-1.0383-1.4456-1.2948-2.8623-.3516-4.5055.7528-1.3097 1.667-2.3145 3.0362-3.0147 1.7084-.873 3.4334-1.5608 5.3817-1.4785 2.5274.1071 4.3351 1.355 5.514 3.5542.12.2265.3144.4448.3392.6795.0662.6507-.0248 1.285.3847 1.915.1779.276-.0951.8732-.2192 1.3056-.3351 1.1737-.2937 1.3055 1.0052 2.1333.0455-.8731.0869-1.6473.1282-2.4298.4344-.7001.9473-1.3797 1.2948-2.1292.9183-1.9769 2.8211-2.5699 4.6081-3.2783.455-.1812 1.1003.1277 1.7911.2307.8066-1.0873 1.5719-2.4381 3.0652-3.06 1.6091-.6713 3.3589-.8443 5.0011-1.392.7487.8484 2.0104-.0247 2.8377.9143C49.8197.5393 51.5612.457 53.1621.0657c.7569-.1854 1.7497.0453 2.4819.3953 1.1045.5313 2.3454 1.0667 3.0238 2.1128.6122.9472 1.2038 1.9933 1.0383 3.2823-.1324 1.005-.0248 2.0427-.0248 3.2453.9472-.1853 1.8945.3212 2.7136-.4407 2.0062-.0988 3.9462.1195 5.758 1.145 1.3982-1.0955 2.9866-1.8822 4.8605-1.9604.3351-.0123.7487-.0782.9928.0824 1.2616.8401 2.242.1194 3.3713-.5025h3.756c1.849.9184 2.7218 2.294 3.4374 4.0031.8315 1.9892-.5377 3.2947-.9638 5.0368.5336.5601.8439 1.3179 1.1458 2.1004.5709 1.4702.0828 2.9075-.7528 3.8506-1.3485 1.5197-2.5481 3.3565-4.7074 3.9949-.7322.2182-1.4271.6836-2.1593.7372-.757.0535-1.5719.3088-2.3537-.2842-.3516-.2677-1.1913-.2842-1.5843-.0453-1.7332 1.0667-3.6195.7166-5.3155.7866-.5212-.2759-.9183-.486-1.365-.7248-.0331.0164-.1283.0617-.2234.107-2.3868 1.0791-4.786 2.1128-7.4996 1.8451-.7777-.0783-1.5719-.173-2.304-.4283-.8398-.2924-1.5595-.1153-2.2421.2924-1.7456 1.046-3.6691 1.0419-5.5926.9472-.4219-.0206-.8356-.2965-1.3444-.4901-1.7373 1.2685-3.7477 1.3632-5.8284 1.392-.8645.0124-1.5677-.9554-2.4488-.3047-.7157.5271-1.5554.5683-2.3827.7536-1.696.383-2.0228.4201-4.0497-.0453-.4798-.1112-.9886-.0823-1.547.1689-1.3982.6342-3.8925 1.2108-4.9515 1.0008-.939-.1854-1.8615-.4654-3.0073-.762-.7487.7537-1.8697 1.1738-3.1686 1.2067-.4964.0124-.9845.2801-1.4851.383-.5046.1071-1.0796-.2059-1.5346.3254-.1241.1441-.6081.1936-.7611.0741-1.241-.9637-2.3786-.0617-3.5492.1483-.2441.0453-.4674.2595-.7074.2718-.7942.033-1.5429.1771-2.3247.3665-1.212.2925-2.4737-.2471-3.6484-.593-1.0176-.3006-1.965-.9431-2.8543-1.565-2.0352-1.4291-3.4457-5.0368-2.9659-7.376.8066-.7578.153-1.9027.8025-2.7676.8852-1.1778 1.4147-2.644 2.395-3.7189 1.5885-1.742 3.6485-2.8787 5.8864-3.6942 1.4395-.523 2.9121-.3747 4.3806-.3994.6164-.0248 1.2203-.0165 2.0352-.0165Zm13.4521 10.436c.0331-.4819-.0496-1.1202.1448-1.668.3227-.9184.7984-1.7791.7032-2.7964.9804-1.2767.1613-2.1786-.6949-3.1999-1.3444.1523-2.7301.3088-3.9836.4489l-1.6629 1.6555h-1.001c.7777-2.2733 1.3816-4.5343 2.0145-6.7912.3764-1.3343.5543-2.5204-.1076-3.6694-2.2957-1.4456-4.1448-.0083-6.1055.799v.9019c.5874.2223 1.121.4241 1.5471.5848.335 2.751-.5088 5.1026-1.1376 7.5119-.4178 1.6103-1.0217 3.167-1.3278 4.8226-.1531.8278-.484 1.6927-1.2203 2.3887-.9266.8813-1.9525 1.5485-3.1231 2.1086h-2.0807l-1.3857-1.3797c0-.8154-.0662-1.6432.0206-2.4586.0786-.7578.3227-1.4991.4178-1.9069.786-.8401 1.3485-1.4373 2.0187-2.1539.4178.2059.8645.4242 1.3568.6631-.3517.3501-.5998.593-.8398.8401-.0413.0412-.0537.1154-.0786.173.2813 1.2973.2813 1.2973 1.7333 1.3055a374.9297 374.9297 0 0 1 1.5512-1.3673v-1.5814c-.393-.4572-.7074-.8155-.9804-1.1326-.6991 0-1.3237.0165-1.94-.0041-1.9029-.0659-3.5492.3995-5.1583 1.5691-1.0797.7866-1.7043 1.6556-2.3041 2.7634-.666 1.2356-1.001 2.5287-.699 3.7931.2564 1.0749.3557 2.3639 2.122 2.6563 2.0972.3501 4.2855.4036 6.18-.3294 1.1251-.4325 1.9359-1.2809 3.0941-2.0222.0828.7537.1448 1.3138.1986 1.7915h3.6319c.1572-.3294.3475-.6013.4219-.906.4799-1.8533 1.121-3.6571 1.6505-5.4939.3764-1.3097 1.3982-2.0716 2.271-2.9735.0372-.0371.1282-.0206.4302-.0535.2192.1029.6246.2965 1.0796.5106-.1654 2.4875-1.7166 4.6579-1.212 7.1866.2937.2965.6288.6425.9597.9802h2.9039c.5874-.4119 1.1582-.8484 1.7663-1.2232.5874-.3624 1.212-.6671 1.6753-.9184.666.2348.4344.7908 1.0879.9926 1.4933.4612 3.148.3541 4.6702-.5396.7529-.4406 1.2947-1.4084 2.2462-1.2108.3226.3378.5212.6672.8107.832 1.1045.626 2.2503.7001 3.3961.0782 1.0673-.5766 2.1386-1.149 3.3051-1.775l1.3072 1.3014c.8439 0 1.5429.0618 2.2213-.0165.6371-.0741 1.2575-.2924 1.9814-.4695.757-.5807 1.3113-1.5773 2.2834-2.0592 2.333 2.2198 4.6247 2.4669 7.4624 1.0502 1.3857-.6919 2.4074-1.672 3.2224-2.9405.8314-1.2932 1.4146-2.6358 1.2451-4.2255-.0662-.6095-.0125-1.2314-.0125-1.8368-.3019-.3006-.608-.5807-.8852-.8854-.3185-.3542-.6122-.729-.7983-.9514-2.7384-.1606-4.1986.0124-5.1128.3872-1.6629.6836-2.908 1.8985-4.0249 3.2082-1.1706 1.3755-1.2989 3.1094-1.1624 4.7938-.3764.3871-.7115.7331-1.03 1.0625h-1.2575l-.6163-.6136c0-.6548-.0538-1.3426.0165-2.018.0662-.6384.2358-1.2644.4013-1.8904.4757-1.7915.9762-3.5788 1.4519-5.3703.5957-2.2446 1.5843-4.4067 1.4312-6.7954-1.1996-1.149-1.9731-1.672-2.7218-1.4002-1.514.5477-3.3672.56-4.1324 2.1498.6825.42 1.3361.8195 1.9648 1.2067-.2895 1.392.0207 2.6193-.4012 3.9207-.5667 1.7544-.637 3.6694-1.7291 5.2674-.062.0947-.0207.2718-.0083.4077.0786.7784-.3723 1.3467-.728 1.9645-.364.6342-.0248 1.3714-.364 2.1168-.3392.7372-.5709 1.4332-1.2244 1.8492h-1.2493c-.3268-.7455-.9183-1.5279-.4798-2.2322.335-.5395.2399-1.0131.3392-1.5197.0993-.4983.3392-.9801.3929-1.4785.149-1.4867.6412-2.8746 1.1004-4.2831.7652-2.3516 1.6877-4.6908 1.394-7.2484-.0166-.1276-.0538-.2512 0-.004-.484-.6425-.7694-1.0214-.8894-1.1862-2.0021-.4818-3.4747.2348-4.8977 1.1079-.3557.2183-.637.5518-1.03.902 1.4851.5065 1.4851.5065 2.18 1.8573-.1282.6425-.3226 1.1449-.3102 1.6432.0537 2.2651-.848 4.2996-1.5595 6.3629-.6329 1.8286-1.0921 3.686-1.3858 5.2057a436.9562 436.9562 0 0 0-1.7001 1.7956c-.3185-.1442-.7239-.3254-1.0341-.4654-.4757-2.298.2027-4.3284.7487-6.3505.1324-.4901.5212-.8855.2027-1.495-1.6174.0453-3.3175-.2759-4.8232 1.0172.4508 2.5122-1.1996 4.6868-1.2948 7.2813-.7073.3089-1.4105.6096-2.0848.9061-.3061-.3336-.4923-.5354-.7653-.8319Zm44.2157-12.0834h-1.8491c-.6039 1.1038-2.2999 1.4826-2.2337 3.1094 1.9442 1.0173 2.4944 1.948 2.4695 4.1225l-.6535.6507H68.488c-.9142 1.0173-1.2658 2.0221-.3723 3.2h2.4406c1.1499-.6136 1.1789-2.088 2.3289-2.4257.7528.7536 1.4726 1.4702 2.0972 2.0921 2.3868-.1277 4.0373-1.009 4.9515-3.027.0289-.0618-.1324-.2059-.2027-.313-.5419.1647-1.0879.3295-1.4768.4448-.6411-.5807-1.1458-1.0337-1.5967-1.4456v-1.2849c3.0197-2.8582 3.5699-3.4347 3.2265-5.4527-.1654-.0289-.3847-.0124-.5377-.0989-.2151-.1235-.3806-.3295-.5378-.4695-1.5512.8566-1.6836.8237-1.9979 2.2198-.1945.869-.6288 1.4168-1.2989 2.0386a782.6602 782.6602 0 0 1-2.2503-3.3606ZM36.3221 9.0602c-2.1137 2.0716-2.3909 3.0188-1.3071 4.4849 3.1272.0783 3.9545-1.0296 3.3547-4.4849h-2.0476Z"/><path fill="#343F55" d="M63.06 14.4141c-.1323.7866-.244 1.462-.3929 2.3269.5543.4242 1.274.9719 1.9069 1.4538.4054 1.8945-.6122 3.0147-1.9566 4.1431l-2.3165-.4613c-.6866-1.2973-.7652-2.4833-.3847-3.8507.4757-1.6803 1.3031-2.8952 3.1438-3.6118Z"/></svg>