<svg xmlns="http://www.w3.org/2000/svg" height="30" fill="none" viewBox="0 0 121 38"><path fill="#343F55" fill-rule="evenodd" d="M86.0123 12c1.0078 0 1.8249.8182 1.8249 1.8274 0 1.0091-.8171 1.8274-1.8249 1.8274-1.0077 0-1.8241-.8183-1.8241-1.8274 0-1.0092.8164-1.8274 1.8241-1.8274Zm24.5967 6.7116c.093-3.065 5.01-3.3446 7.86-1.6161l-1.053 2.0729c-.981-.6832-1.831-1.0023-2.913-.9137-1.025.0839-1.135 1.2014.527 1.1592 2.597-.0655 3.997 1.301 3.86 3.0574-.223 2.8359-4.683 3.9964-8.597 1.511l1.439-2.1083c1.088.626 2.172 1.1851 3.263 1.0542 1.132-.1357 1.704-1.0508-.316-1.2649-2.751-.2925-4.124-1.1721-4.07-2.9517ZM89.1574 25.344v-8.7326h3.1751v1.2253c1.2318-2.0462 6.0212-2.0769 6.0219 1.119l.0007 6.3883h-3.1655l-.0354-4.3905c-.0136-1.7558-.6517-1.9215-1.5116-1.824-.7129.0805-1.3523.3396-1.3523 1.824v4.3905h-3.1329Zm-4.7942-8.8894h3.2983v8.8894h-3.2983v-8.8894ZM68.2809 25.344v-8.7326h3.1743v1.2253c.9513-1.5894 4.6179-2.3647 5.6706.1003 1.4967-2.24 5.8742-2.1377 5.8722.9055l-.0034 6.5015h-3.3651v-4.7771c0-1.284-.2186-1.4067-1.2957-1.359-.8811.0396-1.082.7712-1.0861 1.6024l-.0211 4.5337h-3.1655l-.0348-4.3905c-.0143-1.7558-.399-1.9058-1.261-1.824-.8539.0805-1.2263.1991-1.2263 1.824v4.3905h-3.2581Zm-5.7244-9.381c2.5867 0 4.6839 2.1001 4.6839 4.6905 0 2.5911-2.0972 4.6905-4.6839 4.6905-2.5875 0-4.6847-2.0994-4.6847-4.6905 0-2.5904 2.0972-4.6905 4.6847-4.6905Zm0 3.0213c.9206 0 1.6668.7473 1.6668 1.6692s-.7462 1.6692-1.6668 1.6692c-.9206 0-1.6669-.7473-1.6669-1.6692s.7463-1.6692 1.6669-1.6692ZM45 25.344V12.9785h3.6721c1.1651 0 2.1619.0634 2.9858.1902.8239.1268 1.4973.3232 2.0128.5885 1.0942.5618 1.9296 1.3091 2.5152 2.2371.5822.9287.8736 1.9863.8736 3.1748 0 1.1844-.2914 2.2372-.8709 3.1597-.5794.9226-1.4176 1.6692-2.5179 2.2372-.5325.2707-1.2127.4698-2.0332.5939-.8205.1241-1.9243.1841-3.3011.1841H45Zm3.666-3.2661v-5.8326h1.4994c.4759 0 .8831.03 1.2195.0893.337.06.6121.1527.8225.2775.4467.2652.7878.6178 1.0275 1.0555.2376.4378.3568.9369.3568 1.4974 0 .5591-.1192 1.0555-.3561 1.4905-.2363.4351-.5788.7876-1.0282 1.0556-.2179.1275-.4957.2216-.8307.2795-.335.0587-.7858.0873-1.3482.0873H48.666Zm55.247-6.1149c2.587 0 4.684 2.1001 4.684 4.6905 0 2.5911-2.097 4.6905-4.684 4.6905s-4.6843-2.0994-4.6843-4.6905c0-2.5904 2.0973-4.6905 4.6843-4.6905Zm0 3.0213c.92 0 1.667.7473 1.667 1.6692s-.747 1.6692-1.667 1.6692-1.667-.7473-1.667-1.6692.747-1.6692 1.667-1.6692Zm5.661-6.9638c.722 0 1.343.4323 1.619 1.0527.212.478.229 1.0863.101 1.5942-.198.7821-.857 1.5465-2.245 2.2727l-.383-.5189c.271-.2271.55-.461.663-.6321.202-.3062-.062-.2305-.284-.3-.72-.225-1.243-.8987-1.243-1.6938 0-.9805.793-1.7748 1.772-1.7748ZM12.7027 11.8449 24.212.3597c.4815-.4807 1.2679-.4794 1.7473.0027l10.859 10.9118c.4801.4821.4787 1.2696-.0034 1.7504L25.3056 24.5098 12.7027 11.8449Zm10.313-2.038c1.2086-1.2063 3.1648-1.2028 4.3687.0075 1.2045 1.2103 1.2011 3.1686-.0075 4.3748-1.2079 1.2055-3.1642 1.2021-4.3687-.0075-1.2038-1.2103-1.2004-3.1693.0075-4.3748ZM14.3212 22.9811c1.2087-1.2056 3.1649-1.2022 4.3687.0081 1.2046 1.2097 1.2012 3.1686-.0075 4.3742-1.2086 1.2062-3.1641 1.2028-4.3686-.0075-1.2046-1.2103-1.2005-3.1686.0074-4.3748Zm-9.043.0279c1.2085-1.2055 3.1648-1.2021 4.3686.0082 1.2045 1.2096 1.2011 3.1686-.0075 4.3748-1.2086 1.2055-3.1641 1.2021-4.3687-.0082-1.2038-1.2096-1.2004-3.1686.0075-4.3748ZM.362 24.16l11.5093-11.4853 12.6029 12.6649-11.5093 11.4853c-.4814.4807-1.2679.4793-1.7472-.0028L.3586 25.9097c-.4794-.4821-.478-1.2697.0034-1.7497Z" clip-rule="evenodd"/><path fill="#343F55" d="M16.9659 37.2401v-1.5457h-.5876v-.2701h1.481v.2701h-.5911v1.5457h-.3023Zm1.0963 0v-1.8158h.4453l.4576 1.4504.4425-1.4504h.4372v1.8158h-.2765v-1.5239l-.4671 1.5239h-.2737l-.4868-1.5457v1.5457h-.2785ZM120.003 18c.129 0 .255.0327.379.0989a.7154.7154 0 0 1 .287.2857c.069.1234.104.2523.104.3866 0 .1329-.034.2605-.103.3832a.7088.7088 0 0 1-.284.2857c-.122.0682-.249.1016-.383.1016a.7741.7741 0 0 1-.383-.1016c-.123-.0675-.217-.163-.286-.2857-.068-.1227-.102-.2503-.102-.3832 0-.1343.035-.2632.104-.3866a.708.708 0 0 1 .289-.2857c.122-.0662.249-.0989.378-.0989Zm0 .1275c-.108 0-.214.028-.316.0832a.5865.5865 0 0 0-.24.238c-.058.1029-.087.2107-.087.3225 0 .1111.028.2175.085.3191a.6087.6087 0 0 0 .239.2386.6454.6454 0 0 0 .319.0853c.11 0 .217-.0287.319-.0853a.5935.5935 0 0 0 .238-.2386c.056-.1016.085-.208.085-.3191 0-.1118-.029-.2196-.086-.3225a.595.595 0 0 0-.241-.238c-.102-.0552-.208-.0832-.315-.0832Zm-.338 1.0698v-.8298h.284c.098 0 .169.0075.212.0225a.2055.2055 0 0 1 .104.0805.2136.2136 0 0 1 .039.122c0 .0607-.022.1132-.065.1582-.043.045-.1.0703-.172.0757.029.0123.053.0266.07.0437.034.0327.075.0879.123.165l.101.1622h-.163l-.074-.1309c-.058-.1022-.104-.167-.14-.1929-.024-.0191-.06-.0287-.107-.0287h-.078v.3525h-.134Zm.134-.467h.162c.078 0 .13-.0116.159-.0348a.1167.1167 0 0 0 .042-.0921.1114.1114 0 0 0-.021-.0661.1193.1193 0 0 0-.056-.043c-.024-.0095-.069-.0143-.134-.0143h-.152v.2503Z"/></svg>