<svg xmlns="http://www.w3.org/2000/svg" width="150" height="30" fill="none" viewBox="0 0 160 30"><g fill="#343F55" clip-path="url(#a)"><path d="M12.987 21.2112c1.7524 0 3.1673-1.2461 3.1673-2.7779H9.8327c0 1.5318 1.4019 2.7779 3.1543 2.7779Z"/><path d="M23.67 7.971c.7139-.623 1.1812-1.5317 1.1812-2.5701 0-1.8692-1.5187-3.388-3.4009-3.388-1.2072 0-2.2586.6231-2.8557 1.5577-1.6875-.8177-3.5826-1.285-5.5816-1.285s-3.8942.4543-5.5816 1.272C6.8213 2.6232 5.7828 2 4.5755 2 2.7064 2 1.1747 3.5187 1.1747 5.388c0 1.0254.4544 1.947 1.1683 2.557C.954 9.996.1363 12.4754.1363 15.1364.1363 22.2366 5.9126 28 13 28s12.8637-5.7634 12.8637-12.8637c.013-2.6351-.8048-5.1143-2.1937-7.1653ZM13.013 27.0265c-6.5422 0-11.8642-5.3221-11.8642-11.8642 0-2.4663.7528-4.7509 2.038-6.646 1.1682-1.7135 2.7778-3.1154 4.647-4.024C9.3914 3.7264 11.1438 3.298 13 3.298c1.8562 0 3.6086.4284 5.1792 1.1943 1.8822.9086 3.4788 2.3105 4.6471 4.024 1.285 1.8951 2.0379 4.1797 2.0379 6.646.013 6.5421-5.309 11.8642-11.8512 11.8642Z"/><path d="M12.987 17.6415c.1947.0519 2.2327-.636 2.2327-1.5966 0-.5322-1.6486-.636-2.2327-.636-.5711 0-2.2326.1038-2.2326.636 0 .9606 2.0379 1.6485 2.2326 1.5966ZM20.4638 9.5936c-1.1163-.7399-3.5956-1.1812-4.5562.1038 0 0-1.2201 1.3111-.0259 2.674 1.2072 1.363 2.1288 2.6351 2.4014 3.7384.2726 1.1034.7139 1.5577 1.6096 1.5707.8956 0 2.6091-1.363 2.8297-3.5567.2207-2.1937-1.1423-3.8033-2.2586-4.5302Zm-2.5572 2.8038a.6703.6703 0 0 1-.6749-.675c0-.3764.3115-.675.6749-.675.3765 0 .675.2986.675.675-.0129.3635-.3115.675-.675.675ZM10.0664 9.6845c-.9735-1.2721-3.4528-.8438-4.5562-.1039-1.1163.7399-2.4792 2.3365-2.2586 4.5302.2077 2.1937 1.9341 3.5567 2.8298 3.5567.8956 0 1.337-.4543 1.6096-1.5707.2726-1.1033 1.2072-2.3754 2.4014-3.7383 1.1942-1.363-.026-2.674-.026-2.674Zm-1.7913 2.7129a.6704.6704 0 0 1-.675-.675c0-.3764.2986-.675.675-.675.3764 0 .675.2986.675.675-.013.3635-.3116.675-.675.675Z"/></g><g fill="#343F55" clip-path="url(#b)"><path d="M30.8 11.676h2.244V9.6c0-2.52 1.404-4.2 4.2-4.2l1.404.276v2.52l-1.536-.276c-.84 0-1.26.564-1.26 1.404v2.352h2.796v2.52h-2.796V24.84h-2.796V14.196h-2.244l-.012-2.52ZM45.896 11.4c3.636 0 6.864 2.796 6.864 6.864 0 4.056-3.216 6.864-6.864 6.864-3.636 0-6.864-2.796-6.864-6.864.012-4.068 3.228-6.864 6.864-6.864Zm0 11.196c2.664 0 4.056-1.956 4.056-4.344 0-2.376-1.404-4.344-4.056-4.344-2.664 0-4.056 1.956-4.056 4.344 0 2.388 1.404 4.344 4.056 4.344ZM60.848 11.4c3.636 0 6.864 2.796 6.864 6.864 0 4.056-3.216 6.864-6.864 6.864-3.648 0-6.864-2.796-6.864-6.864.012-4.068 3.228-6.864 6.864-6.864Zm0 11.196c2.664 0 4.056-1.956 4.056-4.344 0-2.376-1.404-4.344-4.056-4.344-2.664 0-4.056 1.956-4.056 4.344 0 2.388 1.404 4.344 4.056 4.344ZM82.388 24.84h-2.52l-.276-1.116-.144-.144-.144.144c-.84.84-2.244 1.404-3.636 1.404-3.636 0-6.72-2.796-6.72-6.864 0-4.056 3.084-6.864 6.72-6.864 1.368 0 2.796.564 3.636 1.404l.144.144.144-.144V5.4h2.796v19.44Zm-6.576-10.92c-2.664 0-4.092 1.956-4.092 4.344 0 2.376 1.428 4.344 4.092 4.344 2.376 0 4.056-1.956 4.056-4.344 0-2.388-1.68-4.344-4.056-4.344ZM85.196 11.676h2.52l.252 1.116.168.144.144-.144c.84-.84 2.244-1.404 3.636-1.404 3.636 0 6.72 2.796 6.72 6.864 0 4.056-3.084 6.864-6.72 6.864-1.368 0-2.796-.564-3.636-1.404l-.144-.144-.168.144v7.056h-2.772V11.676Zm6.576 10.92c2.664 0 4.056-1.956 4.056-4.344 0-2.376-1.404-4.344-4.056-4.344-2.376 0-4.056 1.956-4.056 4.344 0 2.388 1.68 4.344 4.056 4.344ZM105.68 16.668h2.292v-.576c0-1.584-1.08-2.316-2.58-2.316-1.212 0-2.028.576-2.472 1.764l-2.508-.528c.552-2.244 2.472-3.66 5.004-3.66 3.528 0 5.292 1.74 5.292 5.244v8.244h-2.316l-.264-1.74c-.924 1.296-2.292 1.956-4.116 1.956-2.34 0-4.08-1.392-4.08-4.032 0-2.724 2.304-4.356 5.748-4.356Zm-1.188 5.952c.924 0 1.74-.288 2.424-.864.708-.612 1.056-1.428 1.056-2.508v-.288h-2.4c-1.692 0-2.736.792-2.736 2.052 0 .948.576 1.608 1.656 1.608ZM113.3 11.676h2.52l.276 1.116.144.144.144-.144c.564-.84 1.956-1.404 3.084-1.404 3.36 0 5.316 2.244 5.316 5.316v8.124h-2.796v-8.124c-.084-1.788-.948-2.796-2.796-2.796-1.656 0-3.024 1.344-3.084 2.964v7.956h-2.796l-.012-13.152ZM140.024 24.84h-2.52l-.276-1.116-.144-.144-.144.144c-.84.84-2.244 1.404-3.636 1.404-3.636 0-6.72-2.796-6.72-6.864 0-4.056 3.084-6.864 6.72-6.864 1.368 0 2.796.564 3.636 1.404l.144.144.144-.144V5.4h2.796v19.44Zm-6.588-10.92c-2.664 0-4.092 1.956-4.092 4.344 0 2.376 1.428 4.344 4.092 4.344 2.376 0 4.056-1.956 4.056-4.344.012-2.388-1.668-4.344-4.056-4.344ZM147.992 16.668h2.292v-.576c0-1.584-1.08-2.316-2.58-2.316-1.212 0-2.028.576-2.472 1.764l-2.508-.528c.552-2.244 2.472-3.66 5.004-3.66 3.528 0 5.292 1.74 5.292 5.244v8.244h-2.316l-.264-1.74c-.924 1.296-2.292 1.956-4.116 1.956-2.34 0-4.08-1.392-4.08-4.032 0-2.724 2.292-4.356 5.748-4.356Zm-1.188 5.952c.924 0 1.74-.288 2.424-.864.708-.612 1.056-1.428 1.056-2.508v-.288h-2.4c-1.692 0-2.736.792-2.736 2.052 0 .948.576 1.608 1.656 1.608Z"/></g><defs><clipPath id="a"><path fill="#fff" d="M0 2h26v26H0z"/></clipPath><clipPath id="b"><path fill="#fff" d="M27 0h133v30H27z"/></clipPath></defs></svg>