<svg xmlns="http://www.w3.org/2000/svg" width="150" height="30" fill="none" viewBox="0 0 267 48"><path fill="#343F55" fill-rule="evenodd" d="M68.2861 33.4459c2.8423 0 4.6817-1.3375 5.4839-2.7418v2.4075c0 3.7115-1.8725 5.2497-4.8486 5.2497-2.2734 0-4.1128-1.0366-4.8149-1.4378-.3345-.2006-1.1368 1.4044-.8023 1.6049 1.1035.602 3.3101 1.4714 5.4502 1.4714 4.3804 0 6.8213-2.5413 6.8213-7.5904v-17.421c0-.1213-.208-.1693-.4458-.1882-.1558-.0125-.3247-.0125-.457-.0125-.3345 0-.8692 0-.8692.2007v2.2738c-.8027-1.371-2.6416-2.7085-5.417-2.7085-3.812 0-6.3867 2.2069-6.3867 6.5204v5.8516c0 4.3134 2.5747 6.5202 6.2861 6.5202Zm-4.4804-6.8211v-5.2497c0-3.7784 2.1064-5.1494 4.8486-5.1494 2.9424 0 5.1157 2.1066 5.1157 4.514v6.2529c0 3.0094-2.2402 4.8485-5.1826 4.8485-2.7085 0-4.7817-1.371-4.7817-5.2163Z" clip-rule="evenodd"/><path fill="#343F55" d="M86.6772 16.7271c-1.4713 0-2.7085 1.3375-4.5476 4.1463v12.1044c0 .2007-.5684.2007-.9028.2007-.3344 0-.8694 0-.8694-.2007V14.9883c0-.2006.535-.2006.8694-.2006.3344 0 .8359 0 .8359.2006v4.046c2.0063-3.0428 3.0763-4.1797 5.0826-4.1797h.6687c.2007 0 .2007.6353.2007.9697 0 .3344-.0669.9028-.2675.9028h-1.07Z"/><path fill="#343F55" fill-rule="evenodd" d="M100.163 33.1427c.185.0358.437.0358.625.0358.227 0 .563 0 .755-.0633.089-.0296.147-.0732.147-.1373V20.7397c0-3.9456-1.8721-6.186-6.1187-6.186-2.1065 0-4.3135.5351-5.584 1.1369-.4351.2006.2002 1.8725.6016 1.6385 1.3711-.7357 3.2768-1.1035 4.9155-1.1035 3.1099 0 4.3804 1.3375 4.3804 4.6478v1.4713c-7.8579-1.07-11.4693.7022-11.4693 4.8484v.8694c0 3.3439 2.1734 5.3835 5.7178 5.3835 2.5747 0 4.6479-1.4044 5.7847-2.4409v1.9728c0 .0877.102.137.245.1648Zm-9.9418-5.9159c0-3.1432 2.8423-4.4138 9.6636-3.4441v5.5507c-1.3042 1.3375-3.2437 2.4743-5.4839 2.4743-2.2739 0-4.1797-1.2037-4.1797-3.745v-.8359Z" clip-rule="evenodd"/><path fill="#343F55" d="M117.941 32.9779c0 .2006-.568.2006-.902.2006-.335 0-.903 0-.903-.2006v-12.606c0-2.5747-1.338-3.9791-3.076-3.9791-1.94 0-3.913 2.3741-4.949 4.1797v12.4054c0 .2006-.569.2006-.903.2006-.334 0-.903 0-.903-.2006V14.9884c0-.2006.535-.2006.87-.2006.334 0 .902 0 .902.2006v3.4775c1.171-1.9059 3.077-3.9122 5.417-3.9122 2.575 0 3.912 2.14 4.213 3.9122 1.371-2.1065 3.311-3.9122 5.484-3.9122 2.742 0 4.581 1.9394 4.581 5.116v13.3082c0 .2006-.568.2006-.903.2006-.334 0-.902 0-.902-.2006v-12.606c0-2.675-1.137-3.9791-3.01-3.9791-1.939 0-3.812 1.9394-5.016 4.0794v12.5057Z"/><path fill="#343F55" fill-rule="evenodd" d="M133.423 26.6248V24.886h11.703v-3.2769c0-4.4472-2.775-7.0554-6.855-7.0554-3.778 0-6.654 2.6082-6.654 6.6875v5.5172c0 4.2133 2.608 6.6876 7.022 6.6876 2.374 0 4.481-.5684 6.186-1.5382.335-.2005-.501-1.6384-.769-1.5046-1.304.7021-2.876 1.4044-5.484 1.4044-3.444 0-5.149-1.9729-5.149-5.1828Zm4.848-10.4997c2.742 0 5.049 1.7388 5.049 5.3166v1.9727h-9.897v-2.0731c0-3.4774 2.207-5.2162 4.848-5.2162ZM150.176 26.6248V24.886h11.703v-3.2769c0-4.4472-2.775-7.0554-6.855-7.0554-3.778 0-6.654 2.6082-6.654 6.6875v5.5172c0 4.2133 2.608 6.6876 7.022 6.6876 2.374 0 4.481-.5684 6.186-1.5382.335-.2005-.501-1.6384-.769-1.5046-1.304.7021-2.876 1.4044-5.484 1.4044-3.444 0-5.149-1.9729-5.149-5.1828Zm4.848-10.4997c2.742 0 5.049 1.7388 5.049 5.3166v1.9727h-9.897v-2.0731c0-3.4774 2.207-5.2162 4.848-5.2162Z" clip-rule="evenodd"/><path fill="#343F55" d="M177.928 33.1785c-.334 0-.902 0-.902-.2006V20.7063c0-2.976-1.304-4.3469-3.478-4.3469-2.307 0-4.447 1.9728-5.751 3.8787v12.7398c0 .2006-.569.2006-.903.2006-.334 0-.903 0-.903-.2006V14.9884c0-.2006.569-.2006.903-.2006.334 0 .869 0 .869.2006v3.2435c1.438-2.0397 3.645-3.6782 6.32-3.6782 2.909 0 4.748 2.1735 4.748 5.35v13.0742c0 .2006-.568.2006-.903.2006Z"/><path fill="#343F55" fill-rule="evenodd" d="M185.251 39.6654v-8.9613c.803 1.4044 2.642 2.7419 5.484 2.7419 3.712 0 6.286-2.2069 6.286-6.5203v-5.8516c0-4.3135-2.574-6.5204-6.386-6.5204-2.809 0-4.614 1.5715-5.417 2.976v-2.5413c0-.2007-.535-.2007-.869-.2007-.335 0-.903 0-.903.2007v24.677c0 .2007.568.2007.903.2007.334 0 .902 0 .902-.2007Zm0-12.6728v-6.2194c0-2.4075 2.107-4.5475 4.849-4.5475 3.009 0 5.116 1.371 5.116 5.1494v5.2497c0 3.8453-1.973 5.2163-4.782 5.2163-2.942 0-5.183-1.8391-5.183-4.8485Z" clip-rule="evenodd"/><path fill="#343F55" d="M213.072 33.1786c-.335 0-.903 0-.903-.2006V20.372c0-2.6416-1.572-4.0126-3.478-4.0126-3.31 0-5.751 3.9457-5.751 3.9122V32.978c0 .2006-.569.2006-.903.2006-.334 0-.903 0-.903-.2006V8.2006c0-.2006.602-.2006.937-.2006.334 0 .869 0 .869.2006V18.232c1.438-2.0397 3.611-3.6781 6.286-3.6781 2.909 0 4.748 2.1735 4.748 5.35V32.978c0 .2006-.568.2006-.902.2006Z"/><path fill="#343F55" fill-rule="evenodd" d="M217.82 21.0741v5.8516c0 4.1796 2.541 6.5203 6.955 6.5203 4.447 0 7.022-2.3407 7.022-6.5203v-5.8516c0-4.2131-2.575-6.5204-7.022-6.5204-4.414 0-6.955 2.3073-6.955 6.5204Zm1.805.3011c0-3.8118 1.94-5.1828 5.15-5.1828 3.244 0 5.216 1.4044 5.216 5.1828v5.2498c0 3.8453-1.972 5.2162-5.216 5.2162-3.21 0-5.15-1.4378-5.15-5.2162v-5.2498Z" clip-rule="evenodd"/><path fill="#343F55" d="M247.847 33.1785c-.334 0-.903 0-.903-.2006V20.7063c0-2.976-1.304-4.3469-3.477-4.3469-2.308 0-4.448 1.9728-5.752 3.8787v12.7398c0 .2006-.568.2006-.903.2006-.334 0-.902 0-.902-.2006V14.9884c0-.2006.568-.2006.902-.2006.335 0 .87 0 .87.2006v3.2435c1.438-2.0397 3.645-3.6782 6.32-3.6782 2.909 0 4.748 2.1735 4.748 5.35v13.0742c0 .2006-.569.2006-.903.2006Z"/><path fill="#343F55" fill-rule="evenodd" d="M254.401 26.6248V24.886h11.703v-3.2769c0-4.4472-2.775-7.0554-6.854-7.0554-3.779 0-6.655 2.6082-6.655 6.6875v5.5172c0 4.2133 2.608 6.6876 7.022 6.6876 2.374 0 4.481-.5684 6.186-1.5382.335-.2005-.501-1.6384-.769-1.5046-1.304.7021-2.876 1.4044-5.484 1.4044-3.444 0-5.149-1.9729-5.149-5.1828Zm4.849-10.4997c2.741 0 5.048 1.7388 5.048 5.3166v1.9727h-9.897v-2.0731c0-3.4774 2.207-5.2162 4.849-5.2162Z" clip-rule="evenodd"/><g clip-path="url(#a)"><path fill="#343F55" fill-rule="evenodd" d="M25.221 14.4173c.7144.1126.8589-.0357.9536-.7291.155-1.0579.5244-2.8416 1.3876-4.67.9347-1.9716 2.4232-4.138 4.5051-5.5886 1.7535-1.206 4.6275-2.5417 6.8525-3.0261 1.8201-.4019 3.5255-.4786 4.9887-.3396 3.007.2773 4.6704 1.1567 5.5053 2.2948.3097.4252.4791.9497.486 1.2893.0239.5661-.217 1.3049-1.0098 2.0301-.7714.6986-2.417 1.5825-4.6611 2.3565-2.3294.7955-5.5126 1.6355-8.6856 2.3844-2.6569.6278-4.1686 1.162-5.4308 1.601-2.0995.73-2.7323 2.8735-1.424 3.5281 1.8909.9459 3.0736 1.935 4.0815 2.7759 1.5118 1.272 3.2675 2.7687 5.4473 5.468 1.9749 2.4753 5.2056 7.1996 6.3684 11.7852 1.287 5.0345.4828 9.8089-2.2934 11.1421-2.722 1.3093-6.3493-.58-8.8956-3.2892-2.4225-2.5712-4.1133-5.5998-5.7031-10.2713-1.3788-4.0153-1.9377-9.8379-1.9354-12.8838 0-1.0147-.016-1.2312.024-2.1475.0924-.7985-2.0058-1.459-4.2609.0298-2.5663 1.6941-5.0805 4.7644-6.5648 6.5475-.6457.7783-1.521 1.9221-2.4484 3.1216-1.2227 1.5735-2.5724 3.2121-3.8027 4.1282-1.8517 1.3849-4.8266 1.9574-6.9104.4323C.6367 31.5373.0201 29.9332.0008 28.3024c-.0173-1.1481.2601-2.1868.8188-3.2114.698-1.2578 1.8473-2.6077 3.6692-4.1536 1.884-1.5886 4.8914-3.3854 7.9053-4.6276 4.5971-1.8988 9.5468-2.4962 12.8269-1.8925Z" clip-rule="evenodd"/></g><defs><clipPath id="a"><path fill="#fff" d="M0 0h51v48H0z"/></clipPath></defs></svg>