<svg xmlns="http://www.w3.org/2000/svg" width="144" height="30" fill="none"><path fill="#231F20" fill-rule="evenodd" d="M20.7117 27.3377c.86-.4081 1.9637-1.1845 2.0702-1.9608-.4754.865-1.4054 1.281-2.0702 1.9608Zm-6.4585 1.8429c-.2123.0171-.3803.0765-.4604.2301.2659.0351.4339-.0243.4604-.2301Zm.2302 0c.2902.0207.4789-.0586.579-.2281-.2888-.0207-.5576-.0228-.579.2281Zm-7.2585-5.5321c.4075.0514.6555.1772.9214-.1144-.3095-.1273-.6583-.0887-.9214.1144Zm3.3404-15.329c.103-.268-.5818-.2659-.2273-.1122.103.0622.5047.3453.2273.1122Zm19.1326 4.382c-.0293.1572.0736.4489.1151.228.0329-.1537-.0736-.4482-.1151-.228ZM19.0933 26.8774c-.9979.4103.6705-.2781 0 0Zm-4.3791 1.2659c-.1301-.02-.065-.1115 0-.1115-.8563-.0536-1.8278.7027-2.652 1.033-.9035.3695-1.8664.1537-2.5305.5797.2566-.529 1.0951-.6183 1.7242-.8071.6884-.2065 1.5419-.3481 2.1909-.5783 1.5863-.5582 3.0774-1.3853 4.4978-1.8428-.9686.6848-2.0788 1.2259-3.2304 1.727Zm-8.0683.6941c1.592-.4103 3.9337-.679 5.189-1.0393.1094.4189-.4546.1601-.6913.2337-1.0836.6998-2.8672.9979-4.4977.8056ZM5.3792 27.565c.048-.2537.5669-.0414.8092-.1122-.05.2566-.5697.0472-.8092.1122Zm-.8056-1.0336c-.2516.3517-.7391-.1323 0 0ZM29.4677 10.281c.0236.0887.0057.2274.118.2295.1537-.6019-.2745-.3274-.3481-.4604-.133-.8649-.3575-1.6362-.8064-2.191-.065.3067.4725.5877.1151.8093-.148-1.1288-1.0394-1.5684-1.1516-2.4219-.3781-.1623-.549-.5318-.8092-.8056-.1858-.1423.7499.436.8092.8056.416.1623.4253.7299.8063.9214-1.0393-1.5769-2.0165-2.8464-3.5734-3.6885.0915-.0236.2273-.0036.2302-.1151-.732-.2802-1.2817-1.311-2.0759-1.1516.0114-.366-.6405-.6562-.8056-.464.1029.068.6612.2424.3481.3453-.8271-.0886-1.7042-1.1752-1.9608-.5747-.2566-.0886-.148-.5411-.4639-.5762.0264.251-.0915.366-.3424.3453.1329-.1737.4046-.4875 0-.5761-.1123.1215-.2274.2337-.346.3488-.0265-.218.1301-.2602.1158-.4668-.3903.0415-.6319.827-1.0401.4668.1422-.015.2723-.035.2309-.2309-.2009-.035-.5733.3224-.6913 0 .0708-.1623.4432-.0172.4604-.2359-.2123.0122-.2416-.0858-.1144-.2273-.4846.2838-.5147-.3603-.9185 0 .7084.0414-.6084.1858-.1151.3453-.0536-.1888.6254-.1888.5754 0-.5311.3252-1.5855.1658-2.1145.2251.3396-.0186.6763.3839.5018.4661-.6433-.251-1.4196-.263-2.0787-.115 1.361.1357 2.3833.6111 3.4584 1.04-.5469.0793-1.1995-.331-1.4969-.1158.8142.1744-.9514.0264-.4611.2302.2002.065.6763-.1416.6906.115-.5547.3432-.5962-.0821-1.1516.1159.0414-.1659.1358-.198 0-.3453-.2002.0643-.6791-.1423-.6934.1144.168.0622.599-.1359.5783.115-.7442.3575-1.7306.0858-2.191.2274.2037.1065.579.0414.6905.2309-.431.3595-1.0007-.2424-1.2666 0 .4903.4367 1.1458.6998 1.7306 1.0393-.2745.0029-.3424-.198-.6941-.1158-.0265.2195.1272.258.1186.464-.2187-.065-.827-.316-.925-.1173.4497.268.8836.2502.8064.8056-.9922-.2423-1.7128-.4817-2.537-.2273.7563.2424 1.2381.248 1.3825.9215-.4253-.1895-1.178-.1416-1.4969.1115.1359.0593.2595.1243.3453.2344-.6205-.03-.2781.2295-.8035.3453.4225.2001 1.1073.4067.6913.8092.1594.2237.6905.0736.6876.4568-.3745.1365-.7055-.351-.9207 0 .0379.1565.2888.4782.5783.694-.0915.0244-.2273.0037-.233.113h.3453c.0271.2216-.1273.2567-.1123.4632 1.4619.5469 3.1425 1.2753 4.7251 1.8422 1.9222.6855 4.4742 1.4682 3.9159 4.2654-.118.6047-.865 1.7628-1.4976 2.5362-1.1666 1.4297-3.5077 2.8729-5.3005 3.2275-1.5476.3045-3.3311.2016-5.4156.3453 1.1809.381 2.5191-.0351 3.685.228-1.6534.6848-4.527-.03-6.3342.3453-.145.0321-.115.1801-.2302.2337-.1594.0708-.6204-.0951-.5761.2295.0858.0271.2216.0036.2273.1129-.4754-.03-.449.153-.8056 0-.0272.0915-.098.1358-.2338.118H2.961c-.1215.0057-.0886.1472.1122.1122.5047-.0036 1.0423-.0422 1.2696.233-.1358.2831-.4339-.2366-.5754.1123 1.1008.446 4.0695.0064 5.1854.466-.2188.0515-.6941-.1587-.5755.2274 1.4733-.0408 2.2203-.0994 3.5728-.1144-.7942.5518-2.5927.0979-3.4548.5761.6726.1094 1.1451-.2866 1.494.118-1.8164 1.3525-5.3484.2001-7.4893 1.0329.1008-.0379.1065.1866-.1144.1158-.5233.0858.1737-.3131-.3489-.2301-.0707.1972-.3488.1887-.4603.3481.183.2008.6169.1472.8092.346-.2874.2859-1.5484.451-1.0401.8056-.2066.1737-.647.1244-.8063.3488.1687.0593.5997-.1394.579.1115-.3839.2638.0264.5912-.464.6913 1.4354.1101 3.0188-.5311 4.149 0-.9272.1565-2.7107-.0858-3.685.3452.13.0186.3245-.02.3424.1158-.0886.0265-.2273.0022-.2302.1151.4046.1623.7384-.3216.9214 0-.0471.2602-.6319-.015-.5754.3453.5454-.0558.1294.1451.3481.3453.2745.0743.8357-.1409.9179.1158-.7885 0-.4482.2773-.9179.4639 1.84.1351 4.462-.1866 6.1068 0-.5704.1944-1.5383-.0036-1.9607.3417 2.2324.1129 3.9008-.4983 6.1097-.6877 0 .1122-.0944.1387-.118.2302 1.3846-.2066 1.9429-.5318 3.2275-.8092.015.1301-.1651.1809 0 .233.4875-.1501.9807-.5811 1.5004-.3452 1.2167-.5905 2.6342-1.5948 3.8037-1.8479-.8385.4304-1.6778.8621-2.4212 1.3839 2.3561-.752 4.1725-2.6663 5.6486-3.9151-.1915.233-.8356.6112-.5761.9186 1.2996-1.657 2.4104-3.5027 3.4584-5.4164-.2481 1.4026-1.1666 2.141-1.7299 3.2247 1.0422-.271 1.1923-2.2325 1.845-2.6485-.0236.015.0414.2888.1158.2302.7913-1.2553.9092-2.6313 1.9129-3.7508-.1359.1809.0357.2602.0478.5262-.3602-.1509-1.0486 1.6033-.9214 1.9579.3188-.7999 1.0952-1.2024 1.1516-2.1888.0086-.2238-.1537-.4511-.1179-.6934.1387-.895.6641-1.8043.3481-2.6521.1923-.0035.2009-.0414.2302-.2273.1451-.9979-.2359-2.5398-.118-3.2275Zm-7.6044-8.7617c-.6705-.331-.3038.286 0 0ZM16.9052.0246c-.7377-.1358-.2509.3517 0 0Zm12.5625 9.6803c-.1501-.3103-.0357-.8886-.3424-1.0365.118.3395 0 .9185.3424 1.0365ZM16.7901.5943c-.168.065-.5961-.133-.5761.118.1687-.0615.5969.133.5761-.118ZM3.1911 22.2667c-1.4054-.1351-.995.3395 0 0ZM15.9845.5943c-.9836-.1358-.4911.3546 0 0Zm-4.8409 29.2775c-.0378-.3045.6441.1094.4611-.3431-.1715.0329-.8328.148-.4611.3431ZM66.2613 14.5687h.6312c.2688 0 .4547.0407.564.1272.1065.0851.1594.2273.1594.4275v3.9694l-4.3883-5.5399h-3.6943v1.0158h.6998c.2695 0 .4554.0407.5647.1272.1058.0851.1595.2273.1595.431v4.9546c0 .2044-.0537.3488-.1595.4374-.1093.0887-.2952.1301-.5647.1209h-.6998v.9807h4.2561v-.9807h-.6976c-.2681 0-.4568-.0444-.5641-.1323-.1065-.0886-.1586-.2366-.1586-.446v-4.1018l4.497 5.6608h2.1624V15.147c0-.2088.0521-.3546.1586-.4397.1094-.085.296-.1294.5641-.1386h.5225v-1.0158h-4.0124v1.0158Zm60.8327-.0122h.7c.269 0 .455.0415.565.1272.106.0851.159.2302.159.4318v4.966c0 .2044-.053.3488-.159.4374-.11.0887-.296.1301-.565.1209h-.7v.9807h4.941v-.9807h-.576c-.268 0-.458-.0444-.564-.1323-.106-.0886-.162-.2366-.162-.446v-4.9231c0-.2095.056-.3574.162-.4425.106-.0865.296-.1308.564-.1394h.576v-1.0036h-4.941v1.0036ZM54.2064 20.005c-.4518.5525-1.0895.8299-1.9108.8299-.8063 0-1.4325-.2859-1.875-.8592-.4432-.5726-.6612-1.3761-.6648-2.4126.0036-1.0043.2302-1.7899.6912-2.3604.4604-.5661 1.1045-.8528 1.9279-.8528.7978 0 1.4147.2924 1.8522.8714.4396.5819.6583 1.3911.6583 2.4333 0 1.0158-.2273 1.7985-.679 2.3504Zm-1.8458-6.6945c-1.539 0-2.7614.3868-3.6649 1.1602-.9036.7742-1.3553 1.8221-1.3553 3.146v.0115c0 1.3081.4432 2.3418 1.3288 3.1038.8857.7613 2.0845 1.1423 3.5971 1.1423 1.6034 0 2.8493-.3839 3.7414-1.1481.8886-.7655 1.3346-1.8435 1.3346-3.231 0-1.2488-.4582-2.2596-1.376-3.0302-.9186-.7706-2.1202-1.1545-3.6057-1.1545Zm89.7294 5.1297c-.142.7263-.434 1.2788-.871 1.6627-.44.3832-1.004.5755-1.691.5755-.842 0-1.489-.2688-1.941-.8057-.452-.5354-.679-1.306-.679-2.3039 0-.9364.239-1.677.712-2.226.474-.5468 1.116-.8213 1.919-.8213.717 0 1.287.1973 1.713.5962.424.4024.665.9535.718 1.6662h1.301v-3.3175h-1.072l-.295.6919a6.6126 6.6126 0 0 0-.443-.2837 4.6155 4.6155 0 0 0-.431-.2245c-.277-.1215-.558-.2095-.844-.2595-.287-.0536-.612-.0801-.969-.0801-1.396 0-2.534.4046-3.411 1.2167-.878.8085-1.314 1.8636-1.314 3.1624 0 1.2081.436 2.2089 1.314 3.0009.877.7878 1.987 1.1838 3.331 1.1838 1.226 0 2.218-.2981 2.973-.895.757-.5962 1.206-1.4468 1.351-2.5512l-1.371.0121Zm-46.133.0586-2.2267-4.9459h-4.3905v1.0036h.6962c.2688 0 .4582.0415.564.1272.1087.0851.1623.2302.1623.4318v4.966c0 .2044-.0536.3488-.1623.4374-.1058.0887-.2952.1301-.564.1209h-.6962v.9807h4.1868v-.9807h-.6291c-.2688 0-.4575-.0444-.564-.1323-.1094-.0886-.1623-.2366-.1623-.446v-4.6572l2.7786 6.2162h1.0072l2.8472-6.1333v4.5943c0 .2044-.0536.3488-.1594.4374-.1094.0887-.2959.1301-.5647.1209h-.6999v.9807h5.0618v-.9807h-.697c-.269 0-.458-.0444-.564-.1323-.106-.0886-.162-.2366-.162-.446v-4.9231c0-.2095.056-.3574.162-.4425.106-.0865.295-.1308.564-.1394h.697v-1.0036h-4.2147l-2.2703 4.9459Zm27.907-1.0922c-.62-.3274-1.306-.5641-2.046-.7092a9.6202 9.6202 0 0 0-.449-.085c-.148-.0243-.296-.0479-.438-.0708-.572-.0979-1.068-.2195-1.485-.3638-.416-.1444-.623-.3954-.623-.7499 0-.3217.168-.5819.505-.7799.334-.1973.77-.2981 1.308-.2981h.147c.393.0236.771.1265 1.135.3038s.647.3989.853.6648c.035.0472.068.0944.1.1387.03.0443.057.0858.074.1272.062.1058.11.2152.142.3332.029.1158.059.2637.086.441 0 .0172.003.035.006.0558.005.0207.009.0321.009.0407h1.246v-2.9022h-1.046l-.2.5547c-.36-.2802-.748-.484-1.17-.6083-.42-.1273-.904-.1888-1.45-.1888-1.109 0-1.993.2424-2.652.7263-.658.4847-.986 1.1402-.986 1.9694 0 .8006.251 1.3525.753 1.6606.499.3038 1.131.5311 1.893.6755l1.355.3016c.225.0501.423.0944.597.133.174.0415.33.0829.463.1208.322.0972.532.2044.632.3224.098.1172.148.2831.148.5011 0 .2988-.159.5468-.479.7448-.315.1973-.726.2953-1.228.2953-.481 0-.944-.0829-1.382-.2538-.44-.1687-.77-.3874-.992-.6534-.029-.0321-.053-.0586-.074-.085a.3626.3626 0 0 1-.062-.0829 1.5889 1.5889 0 0 1-.1-.1594c-.033-.0565-.06-.1237-.089-.2045a6.3804 6.3804 0 0 1-.085-.2831c-.033-.1093-.072-.248-.116-.4189h-1.26v3.0002h1.06l.283-.6412c.357.2838.763.4968 1.214.6412.452.1451.915.2245 1.391.2423a.688.688 0 0 0 .133.0115h.133c1.184 0 2.091-.2331 2.725-.7027.638-.4661.954-1.1402.954-2.0201 0-.8385-.31-1.4197-.933-1.7449Zm-45.4162-2.8029h.6584c.1544 0 .2573.0114.3102.0386.0529.0243.0808.0686.0808.1329 0 .0322-.0093.0708-.0279.1151-.0164.0444-.0493.0944-.0936.1509l-1.3289 1.97-1.4354-1.8728c-.0121-.0172-.0214-.0322-.0293-.0443-.0093-.0115-.0214-.0265-.0386-.0415-.0264-.0329-.0536-.0679-.0736-.1087-.0243-.0421-.0357-.08-.0357-.1215 0-.0736.0414-.1265.1208-.163.0829-.0371.2065-.0557.3781-.0557h.6855v-1.0508h-5.1975v1.0508c.2945 0 .5404.0264.7327.08.1915.0529.3688.1623.5282.3339.0465.0321.0851.0707.1208.1122.0358.0472.0765.0915.1216.1415l2.5655 3.1861v1.6241c0 .2044-.0557.3459-.1623.4317-.1058.0851-.2952.1237-.564.1151h-.8327v.9922h5.3305v-.9922h-.8328c-.2688 0-.4546-.0407-.564-.1272-.1058-.0858-.1594-.2302-.1594-.4396v-1.6099l1.8657-2.6248c.2423-.3367.4289-.5876.5647-.7535.133-.168.2595-.283.3753-.3481a.7126.7126 0 0 1 .2473-.0915 6.1113 6.1113 0 0 1 .3017-.03h.2566v-1.0508h-3.8687v1.0508Zm32.3072-.0586h.579c.268 0 .454.0407.564.1272.106.0851.159.2273.159.4303v3.5735c0 .1952-.006.3689-.02.5225a1.984 1.984 0 0 1-.074.4111c-.089.3245-.307.5811-.65.7763-.345.1959-.768.2924-1.269.2924-.645 0-1.137-.163-1.477-.484-.34-.3252-.511-.7949-.511-1.4175v-3.6535c0-.2095.052-.3546.162-.4397.106-.0857.295-.1301.565-.1386h.697v-.9922h-4.941v.9922h.579c.268 0 .454.0407.564.1272.106.0851.159.2273.159.4303v3.996c0 1.0987.372 1.8364 1.113 2.2117.744.3753 1.654.564 2.726.564 1.237 0 2.177-.2302 2.82-.6884.645-.4597.969-1.2638.969-2.409v-3.6535c0-.2095.053-.3546.165-.4397.112-.0857.307-.1301.586-.1386h.43v-.9922h-3.895v.9922Zm-66.6836 2.8615c-.6205-.3274-1.3053-.5641-2.0466-.7092a9.691 9.691 0 0 0-.4489-.085c-.1479-.0243-.2952-.0479-.4375-.0708-.5725-.0979-1.0686-.2195-1.4854-.3638-.416-.1444-.6226-.3954-.6226-.7499 0-.3217.168-.5819.5047-.7799.3338-.1973.7706-.2981 1.3081-.2981h.148c.3924.0236.7706.1265 1.1337.3038.3632.1773.6469.3989.8535.6648.0358.0472.0679.0944.1008.1387.0293.0443.0558.0858.0737.1272.0621.1058.1093.2152.1415.3332.03.1158.0593.2637.0858.441 0 .0172.0028.035.0057.0558.0057.0207.0093.0321.0093.0407h1.2459v-2.9022h-1.0458l-.2001.5547c-.3603-.2802-.747-.484-1.1695-.6083-.4196-.1273-.9043-.1888-1.4504-.1888-1.1101 0-1.9929.2424-2.6513.7263-.6591.4847-.9865 1.1402-.9865 1.9694 0 .8006.2509 1.3525.7527 1.6606.499.3038 1.1316.5311 1.8929.6755l1.3553.3016c.2245.0501.4225.0944.5969.133.1737.0415.331.0829.464.1208.3216.0972.5311.2044.6319.3224.0972.1172.1472.2831.1472.5011 0 .2988-.1594.5468-.4782.7448-.3159.1973-.727.2953-1.2288.2953-.4811 0-.9443-.0829-1.3818-.2538-.4403-.1687-.7706-.3874-.9922-.6534a1.3013 1.3013 0 0 1-.0743-.085.37.37 0 0 1-.0615-.0829 1.5037 1.5037 0 0 1-.1001-.1594c-.0328-.0565-.0593-.1237-.0886-.2045a5.3083 5.3083 0 0 1-.0858-.2831 11.4721 11.4721 0 0 1-.1158-.4189h-1.2609v3.0002h1.0608l.283-.6412c.3575.2838.7621.4968 1.2138.6412.4518.1451.9157.2245 1.3911.2423a.6942.6942 0 0 0 .133.0115h.1322c1.1845 0 2.0916-.2331 2.7257-.7027.6383-.4661.9543-1.1402.9543-2.0201 0-.8385-.3103-1.4197-.9329-1.7449Z" clip-rule="evenodd"/></svg>