<svg xmlns="http://www.w3.org/2000/svg" width="56" height="36" fill="none"><path fill="#000" d="M49.3127.5172c-1.7253 2.2048-3.3625 4.2986-5.0009 6.3925-4.4497 5.688-8.9027 11.3739-13.3405 17.0717-.274.3522-.549.4816-.9915.4783-3.0919-.0196-6.1838-.0152-9.2767-.0043-.3218.0011-.5251-.074-.7002-.3664-1.0654-1.7873-2.1547-3.5615-3.2223-5.3477-.0859-.1446-.1653-.4175-.0935-.5143 1.0056-1.3448 2.0373-2.6679 3.1017-4.0464.9414 1.5601 1.8612 3.0506 2.7396 4.565.2305.3968.4794.5403.9371.5295 1.4644-.0316 2.9299-.0251 4.3932-.0022.3849.0054.6208-.1174.8556-.4208 4.64-5.9761 9.2931-11.9424 13.9331-17.9174.2337-.3.4653-.4316.8534-.4273 1.896.0218 3.7898.0098 5.8119.0098ZM6.4953 27.7788h-1.883V.5628h5.0118v9.043c1.0078-1.3024 1.9112-2.47 2.8136-3.6387 1.3057-1.6905 2.6168-3.3778 3.9072-5.0803.2098-.2761.4218-.3805.7654-.3772 1.8264.0163 3.6539.0076 5.4804.0087.1554 0 .3098.0141.5577.025-.748.9578-1.4438 1.8514-2.1428 2.7418-4.7411 6.038-9.4844 12.074-14.2125 18.1208-.1717.2196-.2815.5479-.2848.8273-.026 1.8286-.013 3.6572-.013 5.5456Z"/><path fill="#000" d="M15.7417 19.4143c1.1817 1.9602 2.3341 3.8388 3.4452 5.7424.2457.4207.5142.549.985.5468 3.4539-.0206 6.9078-.0173 10.3617-.0032.4142.0022.6871-.1044.9534-.4479 6.2251-8.0222 12.4697-16.0302 18.6883-24.0578.3968-.5131.7936-.7208 1.435-.6914 1.1318.0533 2.2679.0152 3.4855.0152-.1251.1848-.1946.3044-.2794.412C47.9118 9.7539 41.004 18.575 34.106 27.405c-.2403.3065-.486.4076-.8643.4076-5.2803-.0119-10.5607-.013-15.841.0022-.4012.0011-.6099-.1326-.8023-.4718-.91-1.6058-1.8417-3.1995-2.7788-4.79-.1566-.2664-.1913-.4512.0261-.7165.6327-.7686 1.2285-1.5644 1.896-2.4222Z"/><path fill="#000" d="M9.6117 27.7767H7.6732c-.0097-.1968-.0271-.3729-.0271-.549-.0022-1.522-.0163-3.0452.012-4.5672.0054-.2805.1174-.6088.2891-.8295C13.3732 14.8558 18.8145 7.8936 24.2416.9206c.238-.3055.4783-.4186.8599-.412 1.4253.0217 2.8505.0087 4.3193.0087.0141.2174.0337.3913.0337.5664.0022 4.6215.0065 9.243-.012 13.8645-.0011.2968-.1283.6349-.2989.8817-.4827.6947-1.0198 1.3524-1.621 2.1363V2.4111c-.2022.2196-.3098.3207-.4001.436-5.751 7.3187-11.5021 14.6364-17.2401 21.9638-.161.2066-.2457.5186-.2588.786-.0359.7023-.012 1.4079-.012 2.1798ZM46.399 13.76c2.8669 4.6835 5.7033 9.317 8.5973 14.0428-1.3503 0-2.5896.0066-3.829-.0021-.6642-.0044-1.4426.1707-1.9601-.1153-.4979-.275-.7317-1.0371-1.0709-1.5916-1.5872-2.5928-3.1658-5.1912-4.7628-7.7775-.1805-.2925-.1859-.4773.0348-.7523.998-1.2394 1.9688-2.4994 2.9907-3.804ZM2.8754.5498V27.769H.9034V.5498h1.972ZM30.7637 14.1198V.5662h4.9596c.0087.1489.0261.3207.0261.4925.0022 2.0645.0076 4.1279-.0076 6.1924-.0022.236-.0609.5175-.199.699-1.5155 2.0058-3.0516 3.9964-4.5845 5.9903-.0381.0522-.0946.0891-.1946.1794ZM30.1837 29.7227c1.3872 0 2.781-.0848 4.1584.025 1.2144.0968 1.8515 1.2883 1.2492 2.1863-.2338.349-.6632.5664-1.0698.898.5392.6936 1.1122 1.4753 1.7373 2.2124.2913.3435.6979.299 1.0034-.0218.1946-.2054.3436-.4663.4697-.724.6751-1.3818 1.335-2.7712 2.0014-4.1573.0925-.1924.1881-.3827.3327-.6762.1326.2446.2272.4033.3055.5697.6882 1.4557 1.359 2.9212 2.07 4.366.1804.3674.4848.6729.7207.9926h-2.9016c.2501-.075.3501-.1185.4544-.1338.3164-.0445.3751-.2185.2925-.5022-.2511-.8632-.3838-.9698-1.26-.9698-.2533 0-.5088.024-.7589-.0054-.4337-.0511-.699.0881-.861.5207-.2435.6534-.1826.8089.5055.9633.0424.0098.0761.0532.2501.1783-.7795 0-1.4144.0043-2.0493-.0011-.6675-.0065-1.434.1783-1.9743-.0903-.5392-.2685-.8534-.9936-1.2633-1.5209-.2-.2566-.3783-.5338-.5979-.7719-.1207-.1304-.3088-.1989-.5664-.3566 0 .7969-.062 1.4373.0304 2.0537.0381.2533.4088.4566.5849.6371h-6.2359c.7501-.3371.3218-.6882.038-1.0285-.462-.5534-.9349-1.098-1.4796-1.7362-.0805.2261-.162.3588-.1696.4958-.0196.3609-.0076.724-.0065 1.0871.0021.8534.0021.8534.7806 1.1948h-3.0734c.0065-.0272.0076-.0837.0217-.087.7664-.1891.7697-.1881.7708-1.0132.0022-1.16.0022-2.3189 0-3.4789-.0011-.8926-.0022-.8926-.9219-1.1513h3.0603c-.5849.137-.6707.5523-.6457 1.0643.025.5186.0054 1.0404.0054 1.7069.9295-.7208 1.7829-1.3438 2.5896-2.0232.3718-.3132.2338-.5251-.4044-.7295h2.1123c-.9153.6631-1.921 1.3915-2.9886 2.1645.9296 1.0535 1.8026 2.0623 2.7027 3.0462.1587.1729.4197.2827.6534.3512.7056.2044 1.0806-.0729 1.0861-.7937.0098-1.2502-.0098-2.5004.0108-3.7496.0109-.5588-.0945-.9762-.7697-.9915Zm2.2852.2784v2.4939c.6545-.037 1.3231.0815 1.6732-.5892.2576-.4914.2479-1.0361-.087-1.4894-.3979-.5404-1.0013-.4469-1.5862-.4153Zm7.0209 1.4828c-.3403.711-.6284 1.3144-.9317 1.9482h1.8373c-.3022-.6512-.5794-1.248-.9056-1.9482ZM47.7926 27.8027c-1.2883 0-2.4439.0098-3.5985-.0108-.162-.0033-.3881-.1175-.4718-.2523-1.1981-1.9134-2.3766-3.8398-3.5768-5.7891.7262-.9284 1.4438-1.8471 2.2059-2.8201 1.8242 2.9734 3.6039 5.8761 5.4412 8.8723ZM4.0657 35.4173H.9238c.2849-.1598.624-.2413.7513-.4512.1326-.2185.0739-.5609.076-.8501.0055-1.1241.0066-2.2472.0011-3.3713-.0032-.8219-.0228-.8393-.7784-1.0578h2.906c-.1859.1348-.4446.2316-.5381.4142-.1066.2076-.0816.4903-.087.7414-.0109.486-.0033.972-.0033 1.6079.9372-.7305 1.8036-1.3676 2.62-2.0623.3317-.2816.1827-.486-.4359-.6925h2.1428c-.9295.6632-1.9373 1.3818-3.032 2.1645.9675 1.0839 1.86 2.1461 2.8255 3.1354.499.512 1.097.3555 1.4557-.3359.599-1.1568 1.148-2.3396 1.7166-3.5127.2587-.5327.5153-1.0654.8186-1.6916.1272.2425.2131.3925.287.548.6795 1.4404 1.3416 2.8896 2.0439 4.3192.1946.3968.5066.7371.7491 1.0818h-2.7332c-.0032-.025-.0076-.0501-.0108-.0751.1282-.0282.2631-.0413.3837-.0891.0935-.037.2077-.1.2468-.1826.1424-.3034-.4783-1.2622-.8143-1.2677-.5066-.0076-1.0154-.0293-1.5187.0131-.1675.0141-.4012.175-.462.3261-.1131.2838-.2012.6262-.1403.91.0304.1413.411.2087.7175.3479h-5.338c.8328-.2555.4719-.6012.2142-.9154-.4816-.586-.9784-1.1589-1.4546-1.7199-.0772.0098-.1413.0141-.1424.0196-.0174.7577-.0554 1.5165-.0152 2.2721.0043.1153.3729.2098.6903.374Zm6.7111-3.9388c-.3414.7252-.6252 1.3296-.9209 1.9569h1.8308c-.3022-.6523-.5805-1.2491-.9099-1.9569ZM46.0425 29.9988v2.3004c.8045.1217 1.023-.0359 1.5981-1.1894v2.8353c-.2109-.8055-.648-1.3056-1.6057-1.2361 0 .7241-.0566 1.4481.0337 2.1526.0271.2153.4587.3794.6751.5436h-3.0386c.2631-.15.6001-.2348.7262-.4457.1315-.2186.0739-.561.0761-.8491.0054-1.1056.0033-2.2102.0022-3.3158-.0011-.8676-.0109-.8785-.7795-1.11h5.102v1.5709c-.4294-1.5394-1.6492-1.2491-2.7896-1.2567ZM18.9135 35.4249h-3.3441c.0066-.0413.0055-.1.0163-.1021.9046-.1881.8785-.1892.9143-1.1611.0229-.6034-.1065-1.1242-.4413-1.6319-.4393-.6631-.8013-1.3774-1.2329-2.0449-.1935-.299-.4772-.5392-.7164-.8002h2.6929c-.1522.124-.436.2468-.4479.3925-.0163.2033.1554.4305.2717.6327.3664.6404.7448 1.2731 1.1774 2.0102.5045-.823.9752-1.5623 1.4155-2.32.3251-.5588-.2696-.5023-.6055-.7219h1.771c-.2947.3381-.6262.6719-.9013 1.047-.3305.4522-.5805.9643-.9197 1.4078-.4523.5904-.6252 1.2187-.5849 1.9645.0543 1.0317.0141 1.0328.9349 1.3274ZM53.8172 35.4282h-3.2398c.2229-.0924.3001-.1478.3794-.1522.3784-.0228.5567-.2294.5567-.5947.0032-1.535.0011-3.0701.0011-4.5965-.9296-.2576-1.1785-.1152-1.9863 1.1535v-1.5601h5.4924v1.4709c-.3425-.9273-.9513-1.3382-2.0026-1.1012v1.8644c0 .76-.0011 1.5199 0 2.2798.0011.9219.0011.9219.7991 1.2361Z"/></svg>