<svg xmlns="http://www.w3.org/2000/svg" width="130" height="40" fill="none"><path fill="#343F55" fill-rule="evenodd" d="M68.0598 12.4579c.382.0061.4894.1153.4415.5217-.0478.4065-.1251.8069-.1969 1.2073a701.212 701.212 0 0 1-.6744 3.7978c-.0119.0607-.0357.1456.0238.182.0719.0486.1435-.0121.2031-.0485.6267-.3944 1.307-.6674 2.017-.8493 2.0353-.5279 3.7718-.5642 5.5086.7765 1.086.8372 1.862 2.1537 2.1185 3.4823.2686 1.4317.0241 2.8453-.2207 4.2528-.2445 1.4378-.4893 2.8756-.7342 4.3134a690.1876 690.1876 0 0 1-.5786 3.361c-.0418.2367-.1732.3822-.4358.3762-.6566-.006-1.3188 0-1.9753-.006-.2984-.0063-.4596-.2186-.406-.5157.4896-2.7362.925-5.4784 1.486-8.2023.1254-.6188.215-1.2498.209-1.8868 0-1.7836-1.3847-3.2214-3.1452-3.3367-1.2891-.0849-2.3751.3458-3.348 1.1649-1.1101.9342-1.6412 2.1779-1.88 3.5854-.4118 2.4206-.8415 4.8413-1.265 7.2619-.0896.5278-.1793 1.0557-.2628 1.5895-.0358.2307-.1609.3458-.382.3458h-2.0706c-.2449 0-.3344-.1518-.3284-.3822.024-.625.1792-1.2315.2865-1.8443.2626-1.5531.5312-3.1062.7998-4.6593.2147-1.2497.4354-2.4934.6505-3.7432.2745-1.5652.5431-3.1305.8117-4.6895.2626-1.4925.5251-2.9789.7877-4.4713.0715-.4246.1611-.8432.2267-1.2679.0358-.2245.1552-.3155.3639-.3155h1.0505c.3044-.0061.6148-.0061.9191 0Z" clip-rule="evenodd"/><path fill="#343F55" d="M99.8683 31.7623c-2.972-3.1244-2.4172-8.5663 1.2287-12.1517 3.647-3.5855 9.019-3.9555 11.991-.8252 2.972 3.1245 2.416 8.5663-1.23 12.1518-3.653 3.5856-9.018 3.9555-11.9897.8251Zm2.0887-2.0688c1.916 2.0203 5.49 1.6744 7.979-.7705s2.954-6.0606 1.038-8.0808c-1.915-2.0203-5.49-1.6745-7.979.7704-2.488 2.4449-2.953 6.0607-1.038 8.0809ZM19.1755 31.7439l-.2089-.2062s-1.0384 6.0606-1.0802 6.2122c-.0418.1519-.0298.4066-.3521.4551H15.535c-.2685 0-.5729-.0668-.5311-.4551.5968-3.5976 2.0052-12.2729 2.6915-14.0687.931-2.4509 2.047-3.458 2.7155-4.095 3.7061-3.5248 9.0175-3.9556 11.9896-.8251 2.972 3.1304 2.417 8.5663-1.2294 12.1517-3.6524 3.5854-9.0236 3.9557-11.9956.8311Zm2.053-2.0748c1.9157 2.0203 5.4905 1.6745 7.9791-.7704 2.4887-2.4449 2.9542-6.0607 1.0385-8.081-1.9158-2.0202-5.4906-1.6744-7.9792.7705s-2.9541 6.0607-1.0384 8.0809ZM37.8624 31.7623c-2.972-3.1244-2.417-8.5663 1.2294-12.1517 3.6464-3.5855 9.0176-3.9555 11.9897-.8252 1.486 1.5593 2.0887 3.7008 1.8679 5.897-.2983 2.9606-1.2174 7.8624-1.3606 8.718-.024.1576-.0658.4246-.3163.4246h-2.0232c-.5134.012-.4655-.273-.4716-.4246-.0237-.3943.2984-1.7777.2509-1.7352-3.5928 2.8876-8.409 3.0031-11.1662.0971Zm2.0888-2.0688c1.9157 2.0203 5.4906 1.6744 7.979-.7705 2.4888-2.4449 2.9543-6.0606 1.0386-8.0808-1.9159-2.0203-5.4906-1.6745-7.9792.7704s-2.9541 6.0607-1.0384 8.0809ZM80.8291 31.7623c-2.972-3.1244-2.4168-8.5663 1.2295-12.1517 3.6466-3.5855 9.0178-3.9555 11.9898-.8252 1.486 1.5593 2.0885 3.7008 1.8676 5.897-.2979 2.9606-1.2174 7.8624-1.3605 8.718-.0242.1576-.0653.4246-.3163.4246H92.216c-.5129.012-.4652-.273-.4711-.4246-.0242-.3943.2987-1.7777.2502-1.7352-3.5928 2.8876-8.4087 3.0031-11.166.0971Zm2.0891-2.0688c1.9157 2.0203 5.4907 1.6744 7.9791-.7705 2.4884-2.4449 2.9537-6.0606 1.0384-8.0808-1.9153-2.0203-5.4907-1.6745-7.9794.7704-2.4884 2.4449-2.9539 6.0607-1.0381 8.0809Z"/><path fill="#343F55" fill-rule="evenodd" d="M59.3228 19.8528c-.209 0-.3284.1031-.3582.3094-.1552.8615-.388 2.1537-.6984 3.8827-.3341 1.8868-.5789 3.3185-.7338 4.2953-.2328 1.4681-.1852 2.5723 1.5754 2.7118.215.0182.5251.0607.7879.1153.4893.097.6803.3883.5787.8858l-.3221 1.547c-.0359.164-.1194.2731-.2983.2791-.7579 0-1.5161.006-2.262-.1819-1.5994-.4006-2.8647-1.7778-3.0737-3.3915-.0716-.5763-.0237-1.1526.0598-1.723.1372-.9463.3044-1.8927.4716-2.8331.1492-.8554.3101-1.7108.4596-2.5723.1432-.8372.2923-1.6744.3997-2.5237.0237-.2185.0716-.4308.1134-.6492.0237-.1214-.0178-.1517-.1311-.1517-.3763.0061-.7582 0-1.1342 0-.3819 0-.4712-.1213-.4177-.5156.0835-.6249.209-1.2498.3461-1.8626.0897-.4003.2984-.552.6984-.5581.3164 0 .6325-.006.9488 0 .1613.0061.2388-.0303.2686-.2123.2087-1.1891.4298-2.3782.6506-3.5673a1.7265 1.7265 0 0 1 .0775-.2912c.0893-.2609.2746-.3943.5489-.3943h1.8204c.4058 0 .579.1941.5071.5946-.1492.8129-.2863 1.6258-.4177 2.4448-.0596.3883-.1372.7765-.2027 1.1648-.0241.1275.0117.2185.1608.2367.0777.0121.1612.0182.2388.0182.7997 0 1.5995.0121 2.3991-.0061.6924-.0182.6566.273.6087.7219-.0655.5582-.1849 1.1102-.2922 1.6623-.0837.4307-.2389.5521-.6804.5521h-1.301c-.3282.0121-.7877.0121-1.3964.0121ZM89.9198 13.9019c-1.3481-1.6077-.7515-2.9303.4594-4.0223 2.3878-2.1597 7.1915-4.2588 8.9703-4.5076.7995-.1092 1.3015.176 1.7485.6067.448.4307.836 1.8079 1.158 2.6936.322.8858 1.355 2.8272 2.071 3.6886.418.5097 2.435 2.2326 3.593 3.0819.238.1456.381.3094.25.6128-.131.3094-.388.2548-.573.1638-2.381-1.1587-3.98-1.9475-4.708-2.6269-.722-.6795-1.755-1.9292-2.143-2.4328-.388-.5036-.7933-.358-1.4684-.1942-.6744.1639-2.4767 1.0375-3.1511 1.5168-.6736.4792-.5966.9767-.2502 1.3832.3456.4064 2.1963 1.5834 2.7034 2.3903.794 1.2679.0719 2.8999-.2862 4.5804-.3464 1.6077-.8057 3.7796-.8358 4.0526-.0301.2487-.1673.3822-.4418.3519-.2627-.0304-.3405-.1821-.3339-.4248.0059-.4246-.1137-4.9262-.5555-6.0242-.8292-2.0445-4.9592-3.4095-6.2067-4.8898ZM97.1283 2.7025c.4652.7098.8534 1.6562-.1072 1.99-3.9517 1.3892-5.3181 2.4388-6.0218 2.73-1.4449.6066-2.5787.3943-2.7039-.8433-.1074-1.0678.5193-2.4813.9728-2.9181.8593-.8312 2.0173-1.5895 4.5123-1.8261 1.6467-.1578 2.8818.1577 3.3478.8675Z" clip-rule="evenodd"/><path fill="#343F55" fill-rule="evenodd" d="M108.98 6.9733c-.06 1.6745-1.39 3.0152-3.067 3.0577-1.534.0364-3.271-1.3165-3.092-3.5066.113-1.3772 1.296-2.9424 3.085-2.8453 1.737-.0728 3.14 1.3832 3.074 3.2942Z" clip-rule="evenodd"/></svg>