<svg xmlns="http://www.w3.org/2000/svg" height="30" fill="none" viewBox="0 0 118 50"><g fill="#343F55" clip-path="url(#a)"><path d="M32.2458 14.9082c-.0108-.1783 9.0884-1.1903 16.8591-2.0241 5.8018-.6229 10.868-1.1433 10.868-1.1433s0 11.247-9.1088 14.9614c0 0-7.0299 2.6747-14.0602-2.5783-.006-.0048-4.1727-3.0916-4.5581-9.2157Z"/><path d="m49.1046 12.8782 14.0327-3.9157-4.6 9.2711-9.4327-5.3554Z"/><path d="M55.0194 4.1057c6.338-1.1892 8.1165 4.859 8.1165 4.859l-14.0327 3.9157c.1239-8.27 5.9151-8.7735 5.9151-8.7735l.0011-.0012ZM62.3158 5.914l4.7733-2.171-3.35 4.7758-1.4233-2.6048Z"/><path d="M26.8987 2.0262s-.5949-.8927 0-1.5855c0 0 .991-.9916 2.0784 0l11.8856 14.0675s.7901 1.0879 0 1.6843c0 0-.7912 1.3856-2.6733-.4939L26.8975 2.0274l.0012-.0012Zm-1.8943 1.776s-.4865-.7254 0-1.294c0 0 .8068-.8073 1.6992 0l9.7049 11.4904s.6489.8879 0 1.3758c0 0-.6504 1.1326-2.1822-.406L25.0044 3.8021Zm-.7574 2.4373s-.3854-.5783 0-1.029c0 0 .643-.6445 1.3523 0l7.7287 9.1519s.5141.7084 0 1.094c0 0-.5142.9036-1.7365-.3253l-7.3457-8.8916h.0012Zm24.8586 6.6277 10.9222-1.1482s-.212 4.0603-1.4401 6.5302l-9.4821-5.382Z"/><path d="m60.0271 11.7187 3.1877-2.788-4.6264 9.3181c0 .006 1.4496-4.6349 1.4387-6.5301ZM58.0739 7.3987c.2106-.8446 1.1465-.5097 1.6884-.8723-.5359-.6988-1.9267-.1458-1.6993.7903M34.2868 21.2445s1.6389 2.5615 3.7283 3.7085l-8.4693 3.3964 4.741-7.1049Z"/><path d="M.7418 47.4898C.2481 47.1813 0 46.6887 0 46.0127c0-.6761.4925-1.7 1.4776-3.0761.2866-.4384.7466-.6602 1.38-.6602.6334 0 1.4993.3194 2.5867.9532 1.0886.6338 2.0736.9528 2.9551.9528 1.5811 0 2.3711-.313 2.3711-.9373 0-.4926-.8718-.8553-2.6035-1.0877-1.6341-.2327-3.2526-.8447-4.8602-1.8303-.7527-.4651-1.3752-1.2024-1.8666-2.1989-.4937-.9962-.7418-2.1866-.7418-3.5625 0-4.0988 2.8143-6.1458 8.438-6.1458 1.84 0 3.733.4385 5.6767 1.3205.9092.418 1.3583.9325 1.3583 1.5542 0 .6229-.2866 1.3867-.855 2.2964-.5684.9096-1.1524 1.359-1.7485 1.359-.3083 0-.8875-.1952-1.7317-.5843a6.4638 6.4638 0 0 0-2.7432-.5856c-1.5317 0-2.2952.288-2.2952.8554 0 .7807.8827 1.2842 2.6468 1.517 1.71.1841 3.3719.6771 4.9783 1.4781.7526.3627 1.3812.9905 1.8894 1.8891.5034.894.7586 2.0208.7586 3.369 0 1.3479-.2552 2.4962-.7586 3.4433a4.9265 4.9265 0 0 1-2.1218 2.1229c-1.6618.8071-3.7391 1.2071-6.2403 1.2071-2.5.0119-4.9035-.7145-7.2084-2.1712v-.001Zm30.221-18.6c2.5927 0 4.752.9855 6.4788 2.9566 1.7267 1.9711 2.5866 4.3856 2.5866 7.2399v6.8493c0 .5964-.0219 1.0447-.0602 1.3433-.0363.2975-.1613.6447-.3673 1.0289-.3349.676-1.3366 1.0119-2.9926 1.0119-1.5799 0-2.5649-.3359-2.9551-1.0119-.2047-.3902-.3299-.742-.3685-1.0504-.0373-.3085-.059-.781-.059-1.4025v-6.8074c0-1.0602-.2974-1.895-.8935-2.4901-.5949-.5965-1.3524-.894-2.2724-.894-.92 0-1.7316.2817-2.4301.8334-.6984.5581-1.1043 1.187-1.2066 1.8905v7.5483c0 .5964-.0217 1.0447-.0602 1.3433-.0373.2975-.1626.6447-.3673 1.0289-.3372.676-1.3367 1.0119-2.9937 1.0119-1.6341 0-2.63-.3517-2.9924-1.0503-.1843-.3891-.2927-.7254-.33-1.012a11.4216 11.4216 0 0 1-.0602-1.3651V22.6247c0-.5964.0217-1.0458.0602-1.3434.0373-.2976.1505-.6277.33-.9903.3612-.6988 1.374-1.0506 3.0358-1.0506 1.6341 0 2.6192.3518 2.9551 1.0506.2047.3891.33.7301.3685 1.0289.0374.2976.059.747.059 1.3421v8.5988c1.2765-1.5807 2.7986-2.371 4.5351-2.371Zm12.1721 3.3457c0-.5951.0218-1.0445.0602-1.3421.0373-.2976.1457-.6446.3299-1.029.3613-.677 1.3743-1.012 3.0359-1.012 1.2451 0 2.1268.2217 2.6468.6602.4384.3615.6768.9205.6986 1.6723.0264.2603.0374.6338.0374 1.1265v13.6192c0 .5955-.0219 1.0448-.0602 1.3423-.0363.2975-.1613.6447-.3673 1.0289-.3359.6771-1.3366 1.0119-2.9926 1.0119-1.6352 0-2.631-.3517-2.9937-1.0493-.1841-.3905-.2912-.7264-.3299-1.0119a11.4615 11.4615 0 0 1-.0602-1.3652V32.2367h-.0049v-.0012Zm40.9542-3.3457c2.5926 0 4.7517.9855 6.4789 2.9566 1.7257 1.9711 2.5866 4.3856 2.5866 7.2399v6.8493c0 .5964-.0219 1.0447-.0602 1.3433-.0363.2975-.1613.6447-.3673 1.0289-.3359.676-1.3366 1.0119-2.9926 1.0119-1.581 0-2.5648-.3359-2.9549-1.0119-.206-.3902-.3303-.742-.3687-1.0504-.0373-.3085-.0602-.781-.0602-1.4025v-6.8074c0-1.0602-.2961-1.895-.8912-2.4901-.5961-.5965-1.3535-.894-2.2746-.894-.9201 0-1.7317.2817-2.4289.8334-.6986.5581-1.1042 1.187-1.2078 1.8905v7.5483c0 .5964-.0218 1.0447-.0602 1.3433-.0362.2975-.1616.6447-.3676 1.0289-.3359.676-1.3366 1.0119-2.9922 1.0119-1.6352 0-2.6314-.3517-2.9937-1.0503-.1831-.3891-.2915-.7254-.3299-1.012a11.4008 11.4008 0 0 1-.0602-1.3651V22.6247c0-.5964.0229-1.0458.0602-1.3434.0384-.2976.1468-.6277.3299-.9903.3623-.6988 1.375-1.0506 3.037-1.0506 1.6341 0 2.619.3518 2.9553 1.0506.2045.3891.3299.7301.3672 1.0289.0384.2976.0602.747.0602 1.3421v8.5988c1.2824-1.5807 2.7972-2.371 4.5349-2.371Zm14.8613 2.4903c2.1756-2.0241 4.6666-3.0373 7.4696-3.0373 2.798 0 5.277 1.0072 7.43 3.0156 2.156 2.0097 3.227 4.5712 3.227 7.6842 0 2.1556-.558 4.0666-1.673 5.7398-1.114 1.6736-2.468 2.9074-4.065 3.6989-1.596.7905-3.247 1.1856-4.957 1.1856-1.711 0-3.372-.4218-4.978-1.2676-1.6082-.8444-2.9617-2.0901-4.066-3.7359-1.1042-1.6458-1.65-3.5085-1.65-5.5831-.006-3.1085 1.0817-5.6749 3.2638-7.699l-.0014-.0012Zm4.8616 10.4893c.827.6338 1.671.9517 2.526.9517.855 0 1.71-.3243 2.565-.9736.855-.6507 1.284-1.6084 1.284-2.8806 0-1.2722-.401-2.2204-1.207-2.8433s-1.674-.9362-2.603-.9362c-.931 0-1.803.3253-2.604.9746-.806.6507-1.206 1.6024-1.206 2.8591 0 1.2662.416 2.2145 1.245 2.8483Zm-44.8778 1.2084v.1504c0 1.17 0 2.3398-.006 3.5098 0 .5423-.0867 1.0662-.319 1.5698-.2289.488-.5902.7855-1.0838.9482a4.6594 4.6594 0 0 1-1.3043.2373c-.3996.0169-.7947.0328-1.1957.0218a5.725 5.725 0 0 1-1.4824-.2264c-.6441-.2014-1.0884-.5964-1.2884-1.2567a4.265 4.265 0 0 1-.1891-1.2183c-.006-.2443-.0169-.4817-.0169-.7264 0-5.5179 0-11.0361-.0049-16.5578 0-.2337.1024-.3855.2651-.4988.8-.5836 1.563-1.2165 2.2842-1.8952 1.132-1.0831 2.1591-2.253 2.9443-3.6168a9.2789 9.2789 0 0 0 1.044-2.6434c.0064-.0205.0064-.053.0219-.0639.0482-.0433.0975-.1036.1567-.1144.0707-.0157.0866.0542.0926.1205.0264.4217.0866.8494.0866 1.2711.0049 4.2289.0049 8.4578.0049 12.6867v.1952c.0542-.0374.0926-.0591.125-.0868a286.787 286.787 0 0 0 1.7968-1.6831c.7733-.7265 1.5103-1.494 2.3219-2.1723.6334-.5301 1.3148-1.0229 2.1049-1.3157.6817-.253 1.3151-.1831 1.8944.2651.1514.1205.313.2386.4489.3735a9.1357 9.1357 0 0 1 1.7317 2.3072c.1299.2554.2338.5253.2652.8181.0552.4386-.1085.8121-.3458 1.159-.3359.4928-.7793.8821-1.2345 1.2613-1.2391 1.0507-2.4733 2.1014-3.7124 3.1458-.0158.0169-.0373.0278-.07.0542l.4493.3796c1.6341 1.3532 3.2743 2.7014 4.9035 4.0602.3408.2881.6598.6025.9574.9278.325.3507.4877.7782.4334 1.2652a2.7427 2.7427 0 0 1-.3035.9433c-.4863.9637-1.1151 1.8134-1.9482 2.506-.3131.2602-.6553.4771-1.0719.5542-.3408.0637-.6658-.006-.9848-.1313-.53-.205-1.0007-.5194-1.4718-.8384-.9476-.6387-1.7423-1.4458-2.5603-2.2314-1.0774-1.0397-2.1218-2.1123-3.2524-3.0915-.1469-.1303-.3035-.2556-.4553-.3796-.0106 0-.0215.006-.0324.0169h.0011Z"/></g><defs><clipPath id="a"><path fill="#fff" d="M0 0h117.254v50H0z"/></clipPath></defs></svg>