<svg xmlns="http://www.w3.org/2000/svg" width="104" height="32" fill="none"><path fill="#591515" d="M15.8815 0c-1.4866.022-2.9351.2124-4.3546.6278C3.4668 2.9871-1.3106 11.1463.4682 19.5214 2.3187 28.24 11.2473 33.7743 19.8168 31.4801c4.6168-1.2359 7.9954-4.0477 10.1773-8.3113.3592-.7009.3142-.8112-.4089-1.0978-1.7615-.6998-3.5218-1.3995-5.2833-2.0993-.7161-.2843-.9344-.2077-1.3815.4479-1.6205 2.3802-3.8417 3.7449-6.7305 3.8447-5.1135.1764-9.11-4.3228-8.4263-9.4288.7277-5.4403 6.4546-8.6838 11.4595-6.4917 1.5709.6881 2.7848 1.7917 3.7297 3.2122.298.4479.6353.6115 1.0465.4502a589.6572 589.6572 0 0 0 5.8619-2.3279c.3893-.1566.4505-.4352.2276-.8065-.164-.2739-.3338-.5443-.4978-.817C26.4781 2.8594 21.8867.2135 15.8815 0ZM82.895 13.0157a76.9941 76.9941 0 0 1-.1351-.0557c-.0139-.188-.0405-.3748-.0416-.5628-.0035-2.0447-.0012-4.0895-.0023-6.133 0-.7764-.2103-.983-.9946-.983-1.274-.0011-2.548-.0023-3.8221.0012-.6861.0023-.8975.2135-.8975.8935-.0011 6.4952-.0011 12.9903 0 19.4855 0 .6591.2137.875.8687.8761 1.2879.0024 2.5758.0012 3.8637.0012.7773 0 .9818-.2066.9818-.9922.0011-1.8498-.0023-3.6996.0069-5.5494.0012-.1485.0901-.297.1386-.4456.1213.0801.2506.1509.3615.2437.0844.0696.1444.1671.216.253 1.5871 1.9299 3.1799 3.8551 4.7589 5.7919.3604.4421.797.6708 1.3595.6754.7474.0058 1.4947.0209 2.2432.022 1.3156.0035 2.6312.0093 3.9468-.0092.1629-.0024.4205-.1056.4644-.224.0577-.159-.0439-.3806-.0936-.571-.0162-.0591-.0878-.1044-.1351-.1555-1.4543-1.5666-2.9062-3.1344-4.3616-4.701-1.2659-1.3624-2.5365-2.7213-3.8001-4.0849-.3697-.3992-.4239-.7798-.1248-1.1593.8836-1.1233 1.7384-2.2757 2.6913-3.3387 1.8262-2.0354 3.7124-4.0164 5.5721-6.0193.075-.0813.1571-.1602.2148-.253.2391-.3841.0612-.7346-.3904-.7358-1.9394-.007-3.8776.0093-5.8169-.008-.8906-.0082-1.5189.3307-2.0526 1.0757-1.505 2.0981-3.0771 4.1463-4.626 6.212-.1225.1566-.2634.2994-.3939.4502ZM96.8752 15.7964c0 4.0036-.0012 8.0072.0011 12.0108 0 .7729.2865 1.0584 1.0546 1.0595 1.6471.0024 3.2941.0024 4.9411 0 .722-.0011 1.027-.2889 1.027-1.0015.004-8.035.004-16.0701 0-24.1052 0-.7265-.292-1.0108-1.011-1.012-1.619-.0023-3.2383-.0011-4.8589-.0011-.9102 0-1.1551.246-1.1551 1.1616.0012 3.9642.0012 7.926.0012 11.8879ZM31.3724 15.8937c0 1.7801-.0012 3.5591.0011 5.3393 0 .4897.0728.5663.5475.5698.678.0058 1.3572.0046 2.0352 0 .4933-.0035.5799-.0917.581-.5895.0024-1.0433-.0011-2.0854.0024-3.1287.0011-.4815.0831-.5663.5509-.5674a612.4931 612.4931 0 0 1 2.9073 0c.4828.0011.5799.0963.581.5883.0046 1.0572.007 2.1133-.0011 3.1704-.0023.3644.1409.5373.5174.5315a64.4816 64.4816 0 0 1 2.1184 0c.3904.007.5464-.1682.5464-.5523-.0046-3.5592-.0012-7.1195-.0046-10.6787 0-.441-.1271-.5582-.5776-.5605a228.4172 228.4172 0 0 0-1.9936 0c-.521.0023-.6007.0789-.6018.6104-.0035 1.0433-.0081 2.0854.0023 3.1286.0035.3853-.1548.5605-.5429.5582-.9829-.0081-1.9659.0023-2.9489-.0046-.4655-.0035-.5509-.0987-.5521-.5745-.0023-1.0571-.0081-2.1132.0023-3.1704.0035-.391-.1652-.5558-.5498-.55-.678.0093-1.3572 0-2.0352.0035-.4967.0023-.5822.087-.5833.5802-.0035 1.7651-.0023 3.5301-.0023 5.2964Z"/><path fill="#343F55" d="M15.8815 0c6.004.2135 10.5965 2.8594 13.7083 8.0548.164.2739.3338.5443.4978.817.2241.3725.1617.6499-.2275.8065a600.5156 600.5156 0 0 1-5.862 2.3279c-.4112.1613-.7485-.0023-1.0465-.4502-.946-1.4205-2.1588-2.524-3.7297-3.2122C14.217 6.1517 8.4913 9.3952 7.7625 14.8355c-.6838 5.1049 3.3127 9.604 8.4262 9.4288 2.8888-.0998 5.11-1.4645 6.7306-3.8447.4458-.6556.6641-.7322 1.3814-.4479 1.7615.6998 3.523 1.3995 5.2833 2.0993.7231.2878.7681.3969.4089 1.0978-2.1831 4.2636-5.5616 7.0754-10.1773 8.3113C11.2462 33.7743 2.3186 28.24.4682 19.5214-1.3106 11.1463 3.4668 2.9871 11.528.6278 12.9464.2124 14.396.022 15.8815 0ZM82.8954 13.0161c.1316-.1508.2725-.2936.3915-.4526 1.549-2.0656 3.121-4.115 4.6261-6.212.5336-.7438 1.162-1.0838 2.0525-1.0757 1.9382.0174 3.8776.0011 5.8169.0081.4517.0012.6307.3516.3905.7357-.0578.0929-.1398.1718-.2149.253-1.8608 2.0042-3.747 3.9839-5.572 6.0194-.953 1.0618-1.8077 2.2142-2.6913 3.3387-.2992.3806-.2449.7601.1247 1.1593 1.2648 1.3647 2.5342 2.7224 3.8002 4.0848 1.4554 1.5655 2.9084 3.1333 4.3615 4.7011.0474.051.1201.0951.1352.1555.0508.1903.1513.412.0935.5709-.0427.1184-.3003.2217-.4643.224-1.3156.0174-2.6313.0128-3.9469.0093-.7473-.0023-1.4946-.0163-2.2431-.0221-.5625-.0046-.9992-.2332-1.3595-.6754-1.579-1.9368-3.1707-3.862-4.7589-5.7919-.0705-.0858-.1317-.1833-.216-.2529-.1109-.0929-.2403-.1637-.3616-.2437-.0485.1485-.1386.297-.1386.4456-.0092 1.8498-.0057 3.6996-.0069 5.5493 0 .7868-.2056.9923-.9818.9923-1.2879.0011-2.5758.0023-3.8637-.0012-.6549-.0012-.8686-.217-.8686-.8762a52733.555 52733.555 0 0 1 0-19.4854c0-.6812.2114-.8924.8975-.8936 1.274-.0035 2.5481-.0023 3.8221-.0011.7843.0011.9934.2065.9945.9829.0012 2.0447-.0011 4.0895.0023 6.1331 0 .188.0266.3748.0416.5628.0474.0197.0924.0394.1375.058ZM65.2068 6.9825c1.3988 0 2.8045-.0975 4.1929.0186 3.4871.2924 5.7742 2.8849 5.7106 6.4034-.0381 2.0657-.7635 3.8215-2.4811 5.0759-.3753.2739-.4042.5327-.1085.9168 1.1412 1.4866 2.287 2.9696 3.4305 4.4539.0924.1207.1952.2402.2599.376.1375.2878-.0069.5582-.3176.5593-1.5236.0081-3.0471.0116-4.5706-.0069-.4089-.0047-.7185-.2484-.9599-.5826-.9171-1.273-1.8573-2.5287-2.7537-3.8168-.5371-.7717-1.0511-.7427-1.7337-.6754-.3916.0395-.4655.3783-.4644.7253a869.515 869.515 0 0 1 0 3.464c-.0011.7648-.134.8971-.8963.8982-1.0523 0-2.1057.0023-3.158-.0011-.559-.0024-.7369-.1834-.7369-.7543-.0011-5.4392-.0011-10.8771 0-16.3163 0-.601.1871-.7821.8051-.7833 1.2602-.0035 2.5203-.0011 3.7817-.0011v.0464Zm2.1461 8.2033v-.0023c.4285 0 .8582.0186 1.2867-.0035.9611-.0499 1.6968-.8564 1.6841-1.8231-.0138-1.085-.7323-1.8927-1.7303-1.9147-.8293-.0186-1.6598-.0093-2.4903-.0035-.462.0035-.6769.1961-.6849.6475a69.7537 69.7537 0 0 0 .0011 2.4591c.0081.4514.2206.6336.6884.6405.4147.0047.8305 0 1.2452 0ZM59.8103 15.938c0 4.7753-3.8845 8.6873-8.626 8.685-4.7485-.0023-8.6076-3.9073-8.5983-8.7024.008-4.773 3.8671-8.663 8.596-8.6652 4.7392-.0023 8.6283 3.9108 8.6283 8.6826Zm-11.6269.0047c0 1.2092-.0011 2.4184 0 3.6276.0012.9643.5475 1.2916 1.3676.8158a4293.8538 4293.8538 0 0 0 6.3182-3.6717c.7762-.4515.7739-1.099-.0057-1.5527a4256.8254 4256.8254 0 0 0-6.3183-3.6718c-.8016-.4653-1.3595-.1427-1.3618.7833-.0023 1.2232 0 2.4463 0 3.6695ZM96.874 15.7965V3.9109c0-.9167.2449-1.1616 1.1551-1.1616 1.6194 0 3.2389-.0011 4.8589.0012.719.0011 1.011.2843 1.011 1.0119.002 8.0351.004 16.0702 0 24.1053 0 .7125-.305 1.0003-1.027 1.0015-1.647.0023-3.294.0023-4.9411 0-.7681-.0012-1.0546-.2867-1.0546-1.0595-.0023-4.006-.0023-8.0096-.0023-12.0132ZM31.3716 15.8936c0-1.7662-.0012-3.5325.0012-5.2975 0-.4944.0866-.5791.5833-.5803.678-.0034 1.3572.007 2.0352-.0034.3846-.0058.5533.1589.5498.55-.0104 1.0572-.0058 2.1132-.0023 3.1704.0012.4758.0878.571.5521.5745.983.0069 1.9659-.0035 2.9489.0046.3881.0035.5464-.1729.5429-.5582-.0092-1.0433-.0058-2.0854-.0023-3.1286.0023-.5304.0808-.6081.6018-.6104a228.4172 228.4172 0 0 1 1.9936 0c.4517.0023.5776.1195.5776.5605.0023 3.5591 0 7.1195.0046 10.6786 0 .3853-.1548.5594-.5464.5524a64.4816 64.4816 0 0 0-2.1184 0c-.3765.0058-.5197-.1671-.5174-.5315.0069-1.0572.0046-2.1132.0011-3.1704-.0023-.492-.0982-.5872-.581-.5883a586.9727 586.9727 0 0 0-2.9073 0c-.4678.0011-.5498.0858-.551.5674-.0034 1.0433.0012 2.0854-.0023 3.1287-.0011.4966-.0877.586-.581.5895-.678.0046-1.3572.0046-2.0352 0-.4747-.0035-.5475-.0801-.5475-.5698-.0011-1.7779 0-3.558 0-5.3382Z"/></svg>