<svg xmlns="http://www.w3.org/2000/svg" height="30" fill="none" viewBox="0 0 144 34"><g fill="#343F55" clip-path="url(#a)"><path d="M33.28 23.13s-3.11.89-9.12 4.6a39.7325 39.7325 0 0 0-7.5 5.54L0 21.77s7-5.15 12.86-1.21l7.8 5.39 1-.63L.01 10.15s3.11-.9 9.12-4.6A40.5304 40.5304 0 0 0 16.66 0L33.3 11.5s-7 5.15-12.85 1.21L12.6 7.32l-1 .63 21.68 15.18ZM97.26 8.04H79.97v4.04h8.35l-8.62 8.54v3.4h17.53v-4.07h-8.74l8.77-8.51v-3.4ZM69.79 24.06c6.92 0 8.7-1.83 8.7-5.85V8.04H73v9.51c0 1.6-1.33 2.58-3.21 2.58s-3.19-1-3.19-2.62V8.04h-5.5v10.17c0 4 1.79 5.85 8.68 5.85h.01ZM107.3 24.06c6.92 0 8.68-1.84 8.68-5.88V7.97h-5.48v9.58c0 1.61-1.34 2.59-3.2 2.59s-3.21-1-3.21-2.63V7.97h-5.43v10.21c0 4 1.76 5.88 8.68 5.88h-.04ZM143.32 8.04h-5.7v15.91h5.7V8.04ZM136.74 7.97h-7.51l-6.08 5.5v-5.5h-5.71v15.98h5.71v-5.66l5.64 5.66h7.68l-8.35-8.19 8.62-7.79ZM47.66 12.63c0-1.2 1.74-1.23 2.33-1.23a3.29 3.29 0 0 1 2.78 1.7h6.46c0-2.85-2.7-5.15-9.22-5.15-7.28 0-8.51 3.22-8.51 5.06 0 3.41 2.61 4.42 8.29 5 .49.08 3.46-.09 3.46 1.36 0 1.06-1.67 1.14-2.28 1.14a2.8896 2.8896 0 0 1-2.68-1.8h-7.17c0 3.35 2.26 5.29 9.8 5.29 6.94 0 8.8-2.86 8.8-5s-1.45-4.27-7.38-5c-2.46-.32-4.72-.46-4.72-1.32l.04-.05Z"/></g><defs><clipPath id="a"><path fill="#fff" d="M0 0h143.32v33.27H0z"/></clipPath></defs></svg>