<?xml version="1.0" encoding="utf-8"?>
<!-- Uploaded to: SVG Repo, www.svgrepo.com, Generator: SVG Repo Mixer Tools -->
<svg width="800px" height="800px" viewBox="0 -37.49 392 392" xmlns="http://www.w3.org/2000/svg"><defs><style>.a{fill:#ffffff;}.b{fill:#211715;}.c{fill:#a6a2a1;}.d{fill:#eb6960;}.e{fill:#e2e2e2;}.f{fill:#b5886a;}.g{fill:#a0a0a0;}.h{fill:#f4b467;}</style></defs><path class="a" d="M383.742,12.809c0-2.624-2.61-4.747-5.831-4.745-35.064.028-320.528.223-363.774.242-3.159,0-5.715,2.083-5.72,4.657C8.37,39.071,8.05,225.149,8,251.019c5.834,0,370.467.292,376,.292C383.975,222.243,383.778,37.271,383.742,12.809Z"/><path class="b" d="M391.732,6.174A6.125,6.125,0,0,0,385.652,0C349.1.036,51.484.289,6.4.314A6.015,6.015,0,0,0,.435,6.374C.385,40.345.052,276.8,0,310.459a6.127,6.127,0,0,0,6.071,6.19c36.661.042,343.446.331,379.841.375A6.129,6.129,0,0,0,392,310.839C391.974,273.016,391.768,38,391.732,6.174ZM8,251.019c.05-25.87.37-211.948.417-238.056.005-2.574,2.561-4.656,5.72-4.657,43.246-.019,328.71-.214,363.774-.242,3.221,0,5.828,2.121,5.832,4.745.035,24.462.232,209.434.257,238.5C378.467,251.311,13.834,251.019,8,251.019Z"/><path class="c" d="M351.751,274.353h-7.285a2.028,2.028,0,0,0-2,2c0,1.758-.01,3.516-.01,5.274a2,2,0,1,0,4,0c0-1.758.009-3.516.01-5.274l-2,2h7.285a2,2,0,0,0,0-4Z"/><path class="c" d="M364.064,278.353h7.285l-2-2c0,1.758.009,3.516.009,5.274a2,2,0,0,0,4,0c0-1.758-.009-3.516-.009-5.274a2.03,2.03,0,0,0-2-2h-7.285a2,2,0,0,0,0,4Z"/><path class="c" d="M324.407,277.371c-8.381-.011-16.762-.288-25.143-.293a2.028,2.028,0,0,0-2,2q0,9.33-.01,18.66a2.029,2.029,0,0,0,2,2c7.189.006,14.38.119,21.569.178,1.194.01,2.389.025,3.584.026a2.029,2.029,0,0,0,2-2V279.371c0-2.574-4-2.578-4,0v18.571l2-2c-7.171-.006-14.343-.12-21.514-.179-1.213-.009-2.426-.024-3.639-.025l2,2q0-9.33.01-18.66l-2,2c8.381.005,16.762.282,25.143.293C326.981,281.374,326.985,277.374,324.407,277.371Z"/><path class="c" d="M26.256,285.383c0-2.909,0-5.817,0-6.746a2.476,2.476,0,0,0-2.484-2.477h-2.4a2.482,2.482,0,0,0-2.483,2.527c.034,2,.034,15.538,0,17.542a2.482,2.482,0,0,0,2.483,2.527h2.4a2.476,2.476,0,0,0,2.484-2.477C26.257,295.35,26.256,288.291,26.256,285.383Z"/><path class="c" d="M39.087,285.383c0-2.909,0-5.817,0-6.746A2.475,2.475,0,0,0,36.6,276.16h-2.4a2.484,2.484,0,0,0-2.484,2.527c.034,2,.034,15.538,0,17.542a2.484,2.484,0,0,0,2.484,2.527h2.4a2.475,2.475,0,0,0,2.483-2.477C39.087,295.35,39.087,288.291,39.087,285.383Z"/><path class="c" d="M82.981,290.837V279.2a1.369,1.369,0,0,0-1.374-1.37H80.281a1.375,1.375,0,0,0-1.374,1.4c.019,1.109.019,15.353,0,16.462a1.375,1.375,0,0,0,1.374,1.4h1.326a1.369,1.369,0,0,0,1.374-1.37Z"/><path class="c" d="M62.54,295.6a.88.88,0,0,0,1.381.6c2.245-1.436,10.295-7.172,10.891-7.536a1.744,1.744,0,0,0,.759-1.2,1.794,1.794,0,0,0-.759-1.2c-.6-.364-8.646-6.1-10.891-7.536a.88.88,0,0,0-1.381.6C62.535,281,62.535,293.933,62.54,295.6Z"/><path class="c" d="M113.113,293.217c-.79,0-3.361-.008-5.213-.008a2.055,2.055,0,0,1-1.937-1.9v-8.452a2.188,2.188,0,0,1,1.963-1.948c1.4,0,3.823-.025,5.214-.025,1.356-.881,6.578-4.7,10.19-7.065a1.226,1.226,0,0,1,1.9,1.028c-.013,5.66-.058,19.772-.073,25.265a1.232,1.232,0,0,1-1.969.985C119.993,298.724,113.964,293.818,113.113,293.217Z"/><path class="c" d="M351.751,297.451h-7.285l2,2c0-1.757-.01-3.515-.01-5.273a2,2,0,0,0-4,0c0,1.758.009,3.516.01,5.273a2.028,2.028,0,0,0,2,2h7.285a2,2,0,0,0,0-4Z"/><path class="c" d="M364.064,301.451h7.285a2.03,2.03,0,0,0,2-2c0-1.757.009-3.515.009-5.273a2,2,0,0,0-4,0c0,1.758-.009,3.516-.009,5.273l2-2h-7.285a2,2,0,0,0,0,4Z"/><path class="c" d="M129.543,283.152a.724.724,0,0,1,.859-.708c2.192.416,4.156,2.432,4.156,5.94a4.776,4.776,0,0,1-4.175,5.131.727.727,0,0,1-.84-.708Z"/><path class="c" d="M143.391,288.029c0-7.273-5.881-13.463-12.018-14.434a1.221,1.221,0,0,0-1.411,1.155c-.017.443-.039.908-.056,1.34a1.205,1.205,0,0,0,.936,1.216c3.351.832,8.291,5.619,8.334,10.671-.042,5.051-4.983,9.838-8.334,10.67a1.207,1.207,0,0,0-.936,1.216c.017.432.039.9.056,1.341a1.221,1.221,0,0,0,1.411,1.155A14.95,14.95,0,0,0,143.391,288.029Z"/><path class="d" d="M166.7,250.745c-5.784,0-147.174-.186-158.672-.186,0,7.343-.031,5.614-.031,11.87,5.066,0,153.97.13,158.7.13Z"/><path class="c" d="M384,250.745c-11.841,0-180.96-.186-204.5-.186v11.87c10.37,0,194.81.13,204.5.13Z"/><path class="e" d="M321.555,31.2q-20.57,0-41.138-.041-4.332,0-8.664-.006a2.029,2.029,0,0,0-2,2q0,13.557-.017,27.115,0,4.923,0,9.846a2.03,2.03,0,0,0,2,2c5.787,0,11.575.087,17.362.136q12.713.11,25.426.218c2.344.019,4.689.049,7.033.051a2.03,2.03,0,0,0,2-2V33.2c0-2.573-4-2.578-4,0V70.521l2-2c-5.738,0-11.476-.087-17.213-.137q-12.733-.109-25.467-.218c-2.38-.019-4.761-.049-7.141-.05l2,2q0-12.684.017-25.367,0-5.8,0-11.594l-2,2q21.493,0,42.986.042,3.408,0,6.816,0C324.129,35.2,324.133,31.2,321.555,31.2Z"/><path class="e" d="M357.451,43.811q-11.255,0-22.509-.022-17.009-.019-34.018-.036-5.97,0-11.941-.008a2.029,2.029,0,0,0-2,2q0,18.612-.023,37.223,0,6.8,0,13.591a2.029,2.029,0,0,0,2,2c7.983,0,15.967.12,23.949.189q17.5.15,35,.3c3.183.026,6.367.067,9.551.068a2.03,2.03,0,0,0,2-2v-51.3c0-2.574-4-2.578-4,0V97.116l2-2c-7.914,0-15.83-.12-23.743-.189q-17.527-.15-35.053-.3c-3.233-.027-6.466-.068-9.7-.069l2,2q0-17.4.024-34.809,0-8,0-16.005l-2,2q13.014,0,26.029.022l33.042.036q4.7,0,9.4.008C360.024,47.811,360.029,43.811,357.451,43.811Z"/><path class="e" d="M56.33,77.6q11.163-9.582,22.333-19.155Q96.22,43.384,113.771,28.314c3.132-2.692,6.284-5.364,9.391-8.086,1.939-1.7-.9-4.519-2.829-2.828-7.862,6.889-15.853,13.636-23.785,20.445Q79.2,52.731,61.849,67.612q-4.173,3.579-8.348,7.159c-1.956,1.68.884,4.5,2.829,2.829Z"/><path class="e" d="M76.683,76.378Q87.846,66.8,99.016,57.223q17.557-15.06,35.107-30.131c3.133-2.691,6.285-5.364,9.391-8.086,1.94-1.7-.9-4.519-2.828-2.828-7.862,6.889-15.853,13.637-23.785,20.445Q99.555,51.511,82.2,66.39q-4.173,3.581-8.348,7.16c-1.956,1.679.884,4.5,2.829,2.828Z"/><path class="e" d="M17.753,133.764A54.305,54.305,0,0,0,43.3,148.051a68.788,68.788,0,0,0,31.642-.276,53.729,53.729,0,0,0,22.647-11.352,50.2,50.2,0,0,0,13.179-18.092,63.568,63.568,0,0,0,1.724-44.564,57.174,57.174,0,0,0-11.906-20.716,52.367,52.367,0,0,0-20.8-13.809c-18.98-6.933-41.741-4.374-57.518,8.594a52.769,52.769,0,0,0-5.047,4.757c-1.757,1.879,1.066,4.714,2.828,2.828A49.223,49.223,0,0,1,43.4,41.37a60.314,60.314,0,0,1,29.169-.119A49.618,49.618,0,0,1,93.846,52.035a51.136,51.136,0,0,1,13.078,18.242,60.219,60.219,0,0,1,2.032,41.592,47.19,47.19,0,0,1-28.668,30.125,65.812,65.812,0,0,1-28.364,3.458,49.632,49.632,0,0,1-31.343-14.517c-1.827-1.818-4.656,1.01-2.828,2.829Z"/><path class="e" d="M65.549,24.98c-16.961-1.554-34.176,2.039-47.934,12.4A2.064,2.064,0,0,0,16.9,40.12a2.013,2.013,0,0,0,2.736.717,59.663,59.663,0,0,1,20.1-9.919,72.279,72.279,0,0,1,25.82-1.938,2.016,2.016,0,0,0,2-2,2.042,2.042,0,0,0-2-2Z"/><path class="e" d="M85.025,65.951c-9.243-9.281-23.574-12.4-36.16-9.417a34.819,34.819,0,0,0-10.514,4.432c-2.171,1.37-.167,4.833,2.019,3.454,12.669-8,31.179-6.332,41.827,4.359,1.819,1.826,4.648-1,2.828-2.828Z"/><path class="e" d="M54.916,64.219A19.913,19.913,0,0,0,43.1,68.041a2.047,2.047,0,0,0-.718,2.736,2.024,2.024,0,0,0,2.737.718,19.02,19.02,0,0,1,2.645-1.627q.331-.168.669-.321c.111-.05.223-.1.335-.148-.185.079-.13.054.024,0,.467-.18.936-.348,1.415-.493a19.823,19.823,0,0,1,2.6-.579c.294-.047-.355.036-.061.01.1-.009.206-.023.31-.034q.3-.03.611-.049c.417-.026.834-.034,1.252-.03a2,2,0,0,0,0-4Z"/><path class="e" d="M76.614,113.24a18.576,18.576,0,0,0,7.743-13.894,2.012,2.012,0,0,0-2-2,2.047,2.047,0,0,0-2,2c-.022.339-.047.677-.092,1.014.046-.341-.02.1-.031.159-.028.162-.058.324-.091.485a15.513,15.513,0,0,1-.5,1.859c-.1.3-.211.588-.326.879.105-.265,0-.009-.053.116s-.127.276-.194.413a16.759,16.759,0,0,1-.861,1.559q-.227.366-.473.72c-.064.093-.13.185-.2.277-.031.043-.372.49-.088.128-.312.4-.641.784-.988,1.154s-.693.708-1.064,1.037c-.173.153-.357.293-.53.446s.333-.241.039-.029c-.1.074-.2.15-.309.223a2,2,0,0,0,2.019,3.454Z"/><path class="e" d="M37.82,110.709A19.49,19.49,0,0,0,51.7,118.484a2,2,0,0,0,2-2,2.059,2.059,0,0,0-2-2c-.669-.077.183.033-.2-.023-.17-.025-.339-.053-.509-.083q-.5-.09-.991-.2a18.242,18.242,0,0,1-1.873-.548q-.444-.156-.881-.335c.264.108.009,0-.115-.055s-.276-.127-.412-.193q-.8-.384-1.549-.846c-.477-.292-.929-.614-1.383-.94.137.1.187.151.024.017-.123-.1-.246-.2-.366-.3q-.264-.224-.519-.459a14.477,14.477,0,0,1-1.021-1.037c-.152-.17-.291-.351-.441-.521-.166-.187.242.336.032.042-.074-.1-.149-.2-.222-.308a2,2,0,1,0-3.454,2.019Z"/><path class="e" d="M79.179,124.962c11.415-6.485,17.4-19.111,17.187-32.006a42.972,42.972,0,0,0-2.4-13.51c-.848-2.412-4.714-1.374-3.857,1.063,5.2,14.794,1.351,32.877-12.947,41-2.238,1.271-.225,4.728,2.019,3.454Z"/><path class="e" d="M26.28,73.955c-5.344,9.833-6.713,21.864-2.693,32.411a36.036,36.036,0,0,0,18.806,20.271,40.227,40.227,0,0,0,18.3,3.142c2.562-.123,2.577-4.124,0-4-9.576.459-18.911-2.2-25.824-9.072A32.956,32.956,0,0,1,25.264,95.09a36.838,36.838,0,0,1,4.47-19.117c1.23-2.262-2.223-4.283-3.454-2.018Z"/><path class="e" d="M44.353,84.257a17.374,17.374,0,0,0-.742,15.718,15.825,15.825,0,0,0,11.229,8.808,2.051,2.051,0,0,0,2.46-1.4,2.018,2.018,0,0,0-1.4-2.46,12.072,12.072,0,0,1-8.721-6.721,13.17,13.17,0,0,1,.625-11.929C49.05,84.02,45.6,82,44.353,84.257Z"/><path class="e" d="M71.3,82.144c-5.015-6.43-15.179-7.735-21.912-3.314-2.143,1.407-.141,4.872,2.019,3.454a13.007,13.007,0,0,1,17.065,2.688,2.01,2.01,0,0,0,2.828,0,2.05,2.05,0,0,0,0-2.828Z"/><path class="e" d="M62.823,108.643A15.116,15.116,0,0,0,72.87,101.38a18,18,0,0,0,1.562-12.747C73.86,86.124,70,87.186,70.575,89.7a15.069,15.069,0,0,1,.386,3.5c0,.381-.018.761-.047,1.141q-.024.312-.061.624c.034-.278-.014.095-.031.2a15.567,15.567,0,0,1-.581,2.352,9.02,9.02,0,0,1-.825,1.856A10.628,10.628,0,0,1,66.7,102.59a12.075,12.075,0,0,1-4.944,2.2,2,2,0,0,0,1.063,3.857Z"/><path class="e" d="M39.873,188.036a4.994,4.994,0,0,1,.159.536c.023.1.04.2.06.3.094.455-.041-.527-.006-.055a11.043,11.043,0,0,1-.008,1.489c-.018.323.1-.555.008-.071-.023.124-.045.248-.072.371-.064.282-.152.554-.241.829a1,1,0,0,0-.069.182c-.005-.016.224-.483.088-.209-.059.118-.112.237-.173.353-.134.251-.3.476-.45.714-.131.2.3-.335.125-.167-.059.058-.11.129-.167.191-.093.1-.19.2-.29.292-.148.137-.484.306,0,.024-.139.081-.265.19-.4.275s-.257.15-.39.218c-.068.034-.14.063-.207.1-.224.119.4-.139.152-.065a11.24,11.24,0,0,1-1.088.306c-.088.017-.177.03-.265.046-.269.048.4-.007.117-.019-.191-.008-.386,0-.579,0s-.368-.023-.552-.04c-.087-.008-.371,0-.063,0,.323-.006-.028-.009-.114-.025a7.287,7.287,0,0,1-.931-.234c-.09-.029-.629-.235-.282-.095.329.134-.157-.082-.241-.127-.233-.126-.442-.314-.675-.432.47.238.212.166.037.006-.115-.106-.224-.216-.328-.332-.04-.046-.078-.095-.12-.139-.143-.152.06-.114.145.189a1.469,1.469,0,0,0-.2-.3c-.063-.1-.123-.205-.178-.31-.107-.2-.183-.62-.023-.006-.059-.227-.16-.444-.219-.673-.029-.115-.054-.23-.076-.346-.011-.058-.019-.117-.031-.175-.065-.313.043.464.031.224s-.038-.5-.034-.755c0-.118.006-.237.014-.355.007-.1.066-.589.009-.177s.012-.044.029-.128c.022-.116.047-.231.075-.346a7.131,7.131,0,0,1,.232-.754c.02-.054.044-.107.063-.162.077-.22-.206.446-.1.239.051-.1.1-.207.148-.309a5.865,5.865,0,0,1,.363-.617c.03-.046.065-.09.094-.136.151-.236-.164.207-.165.207a2.447,2.447,0,0,0,.224-.26c.09-.1.184-.19.283-.279.044-.04.091-.078.135-.118.251-.226-.082.1-.153.114.182-.032.466-.316.636-.41.113-.064.23-.121.346-.18.453-.231-.415.138.07-.032a8.076,8.076,0,0,1,.927-.274c.151-.033.308-.048.458-.084-.651.155-.114.019.091.007a8.817,8.817,0,0,1,.948.018c.321.018-.2-.027-.215-.033.1.028.214.035.316.055.175.036.35.08.521.132.1.029.587.232.273.082s.179.09.262.134a5.632,5.632,0,0,1,.483.292,1.124,1.124,0,0,0,.188.133c-.131-.036-.335-.284-.084-.057.134.122.268.241.394.372.072.074.139.153.21.229.274.293.02-.056-.031-.058.088,0,.325.472.374.552.123.2.233.409.339.62a2.012,2.012,0,0,0,2.736.718,2.05,2.05,0,0,0,.718-2.737,8.021,8.021,0,0,0-4.047-3.854,8.252,8.252,0,0,0-5.048-.367,7.743,7.743,0,0,0-5.835,5.711,7.616,7.616,0,0,0,2.42,7.965,8.513,8.513,0,0,0,10.49-.193,8.482,8.482,0,0,0,2.221-8.784,2,2,0,1,0-3.857,1.064Z"/><path class="e" d="M39.873,207.93a4.944,4.944,0,0,1,.159.537c.023.1.04.2.06.3.094.455-.041-.527-.006-.055a11.043,11.043,0,0,1-.008,1.489c-.018.323.1-.554.008-.071-.023.124-.045.248-.072.371-.064.282-.152.554-.241.829a1.03,1.03,0,0,0-.069.182c-.005-.016.224-.483.088-.208-.059.117-.112.236-.173.352-.134.251-.3.477-.45.714-.131.2.3-.335.125-.167-.059.058-.11.129-.167.191-.093.1-.19.2-.29.292-.148.137-.484.306,0,.024-.139.081-.265.19-.4.275s-.257.151-.39.218c-.068.034-.14.064-.207.1-.224.119.4-.139.152-.065a11.24,11.24,0,0,1-1.088.306c-.088.017-.177.03-.265.046-.269.048.4-.007.117-.019-.191-.008-.386,0-.579,0s-.368-.023-.552-.04c-.087-.008-.371,0-.063,0,.323-.006-.028-.009-.114-.025a7.287,7.287,0,0,1-.931-.234c-.09-.029-.629-.235-.282-.095.329.134-.157-.082-.241-.127-.233-.126-.442-.314-.675-.432.47.238.212.167.037.006q-.172-.157-.328-.332c-.04-.046-.078-.095-.12-.139-.143-.151.06-.114.145.189a1.469,1.469,0,0,0-.2-.3c-.063-.1-.123-.205-.178-.31-.107-.2-.183-.62-.023-.006-.059-.227-.16-.444-.219-.673-.029-.115-.054-.23-.076-.346-.011-.058-.019-.117-.031-.175-.065-.313.043.464.031.224s-.038-.5-.034-.754c0-.119.006-.238.014-.356.007-.1.066-.589.009-.176s.012-.045.029-.129q.033-.174.075-.345a7.077,7.077,0,0,1,.232-.755c.02-.054.044-.107.063-.162.077-.22-.206.447-.1.239.051-.1.1-.207.148-.309a5.865,5.865,0,0,1,.363-.617c.03-.045.065-.09.094-.136.151-.236-.164.207-.165.208a2.563,2.563,0,0,0,.224-.261c.09-.1.184-.19.283-.278.044-.041.091-.079.135-.119.251-.225-.082.1-.153.114.182-.031.466-.315.636-.41.113-.064.23-.121.346-.18.453-.231-.415.138.07-.032a7.876,7.876,0,0,1,.927-.273c.151-.034.308-.049.458-.085-.651.155-.114.019.091.007a8.817,8.817,0,0,1,.948.018c.321.018-.2-.027-.215-.033.1.028.214.035.316.056.175.035.35.079.521.131.1.029.587.233.273.083s.179.089.262.134a5.378,5.378,0,0,1,.483.291,1.124,1.124,0,0,0,.188.133c-.131-.036-.335-.284-.084-.057.134.122.268.242.394.372.072.075.139.153.21.229.274.293.02-.056-.031-.058.088,0,.325.473.374.552.123.2.233.409.339.62a2.011,2.011,0,0,0,2.736.718,2.049,2.049,0,0,0,.718-2.736,8.019,8.019,0,0,0-4.047-3.855,8.244,8.244,0,0,0-5.048-.366,7.74,7.74,0,0,0-5.835,5.71,7.615,7.615,0,0,0,2.42,7.965,8.512,8.512,0,0,0,10.49-.193,8.482,8.482,0,0,0,2.221-8.784,2,2,0,0,0-3.857,1.064Z"/><path class="e" d="M39.873,227.227a5.011,5.011,0,0,1,.159.537c.023.1.04.2.06.3.094.455-.041-.526-.006-.055a11.043,11.043,0,0,1-.008,1.489c-.018.323.1-.554.008-.071-.023.124-.045.248-.072.371-.064.282-.152.555-.241.829a1.03,1.03,0,0,0-.069.182c-.005-.016.224-.483.088-.208-.059.117-.112.237-.173.352-.134.251-.3.477-.45.714-.131.2.3-.335.125-.167-.059.058-.11.13-.167.191-.093.1-.19.2-.29.292-.148.137-.484.307,0,.025-.139.08-.265.189-.4.274s-.257.151-.39.218c-.068.035-.14.064-.207.1-.224.119.4-.139.152-.065a10.967,10.967,0,0,1-1.088.307c-.088.016-.177.029-.265.045-.269.049.4-.007.117-.019-.191-.008-.386,0-.579,0s-.368-.023-.552-.04c-.087-.009-.371,0-.063,0,.323-.006-.028-.008-.114-.025a7.287,7.287,0,0,1-.931-.234c-.09-.029-.629-.235-.282-.094.329.134-.157-.083-.241-.128-.233-.126-.442-.313-.675-.432.47.239.212.167.037.006q-.172-.157-.328-.332c-.04-.045-.078-.095-.12-.139-.143-.151.06-.113.145.189a1.469,1.469,0,0,0-.2-.3c-.063-.1-.123-.2-.178-.31-.107-.2-.183-.62-.023-.006-.059-.227-.16-.444-.219-.673-.029-.114-.054-.23-.076-.346-.011-.058-.019-.117-.031-.175-.065-.313.043.464.031.224s-.038-.5-.034-.754c0-.119.006-.237.014-.356.007-.1.066-.588.009-.176s.012-.045.029-.129c.022-.115.047-.231.075-.345a7.077,7.077,0,0,1,.232-.755c.02-.054.044-.107.063-.162.077-.22-.206.447-.1.239.051-.1.1-.207.148-.309a5.968,5.968,0,0,1,.363-.617c.03-.045.065-.09.094-.136.151-.236-.164.208-.165.208a2.459,2.459,0,0,0,.224-.261c.09-.1.184-.189.283-.278.044-.041.091-.079.135-.119.251-.225-.082.1-.153.114.182-.031.466-.315.636-.41.113-.064.23-.12.346-.179.453-.231-.415.138.07-.032a7.7,7.7,0,0,1,.927-.274c.151-.033.308-.049.458-.085-.651.156-.114.019.091.008a8.328,8.328,0,0,1,.948.018c.321.017-.2-.028-.215-.034.1.028.214.035.316.056.175.035.35.079.521.131.1.03.587.233.273.083s.179.09.262.134a5.388,5.388,0,0,1,.483.292,1.176,1.176,0,0,0,.188.132c-.131-.036-.335-.284-.084-.057.134.122.268.242.394.372.072.075.139.154.21.229.274.293.02-.055-.031-.058.088,0,.325.473.374.552.123.2.233.41.339.621a2.012,2.012,0,0,0,2.736.717,2.049,2.049,0,0,0,.718-2.736,8.023,8.023,0,0,0-4.047-3.855,8.244,8.244,0,0,0-5.048-.366,7.742,7.742,0,0,0-5.835,5.711,7.614,7.614,0,0,0,2.42,7.964,8.512,8.512,0,0,0,10.49-.193,8.481,8.481,0,0,0,2.221-8.783,2,2,0,0,0-3.857,1.063Z"/><path class="e" d="M100.43,211.192h17.44c2.574,0,2.578-4,0-4H100.43c-2.574,0-2.578,4,0,4Z"/><path class="e" d="M69.711,207.193h-26.1c-2.574,0-2.578,4,0,4h26.1c2.573,0,2.578-4,0-4Z"/><path class="e" d="M98.233,201.4h-26.1c-2.573,0-2.578,4,0,4h26.1c2.574,0,2.578-4,0-4Z"/><path class="e" d="M102.356,208.7l-2.188-5.838a2.165,2.165,0,0,0-.92-1.195,2,2,0,0,0-2.938,2.259l2.189,5.837a2.156,2.156,0,0,0,.919,1.2,2,2,0,0,0,2.938-2.258Z"/><path class="e" d="M71.767,209.765l2.189-5.837a2,2,0,0,0-2.938-2.259,2.273,2.273,0,0,0-.919,1.195L67.91,208.7a2.017,2.017,0,0,0,.2,1.541,2,2,0,0,0,2.736.717,2.261,2.261,0,0,0,.919-1.2Z"/><path class="e" d="M100.43,191.382h21.1c2.574,0,2.578-4,0-4h-21.1c-2.574,0-2.578,4,0,4Z"/><path class="e" d="M69.711,187.379h-26.1c-2.574,0-2.578,4,0,4h26.1c2.573,0,2.578-4,0-4Z"/><path class="e" d="M98.233,181.582h-26.1c-2.573,0-2.578,4,0,4h26.1c2.574,0,2.578-4,0-4Z"/><path class="e" d="M102.356,188.888l-2.188-5.837a2.168,2.168,0,0,0-.92-1.2,2,2,0,0,0-2.938,2.259l2.189,5.837a2.156,2.156,0,0,0,.919,1.195,2,2,0,0,0,2.938-2.258Z"/><path class="e" d="M71.767,189.951l2.189-5.837a2,2,0,0,0-2.938-2.259,2.272,2.272,0,0,0-.919,1.2l-2.189,5.837a2.017,2.017,0,0,0,.2,1.541,2,2,0,0,0,2.736.717,2.261,2.261,0,0,0,.919-1.195Z"/><path class="e" d="M100.43,231.012h13.91a2,2,0,0,0,0-4H100.43a2,2,0,0,0,0,4Z"/><path class="e" d="M69.711,227.007h-26.1c-2.574,0-2.578,4,0,4h26.1c2.573,0,2.578-4,0-4Z"/><path class="e" d="M98.233,221.21h-26.1c-2.573,0-2.578,4,0,4h26.1c2.574,0,2.578-4,0-4Z"/><path class="e" d="M102.356,228.516l-2.188-5.838a2.165,2.165,0,0,0-.92-1.195,2,2,0,0,0-2.938,2.259l2.189,5.837a2.156,2.156,0,0,0,.919,1.195,2,2,0,0,0,2.938-2.258Z"/><path class="e" d="M71.767,229.579l2.189-5.837a2,2,0,0,0-2.938-2.259,2.273,2.273,0,0,0-.919,1.195l-2.189,5.838a2.017,2.017,0,0,0,.2,1.541,2,2,0,0,0,2.736.717,2.261,2.261,0,0,0,.919-1.195Z"/><path class="e" d="M294.674,147.986c-.16.382.253-.559.337-.74.2-.426.4-.849.6-1.27.448-.919.911-1.831,1.379-2.74,1.11-2.153,2.255-4.287,3.416-6.413q1.528-2.8,3.1-5.572c.331-.582.663-1.163,1-1.738.105-.177.225-.351.322-.533.16-.3.345-.306-.112.109l-.882.514s-.685.025-.3.046c.176.009.361-.016.537-.021.592-.019,1.185-.026,1.777-.033,1.87-.024,3.741-.031,5.612-.036,4.155-.01,8.31-.007,12.464.048.725.009,1.451.019,2.176.04.219.007.439.024.658.025.475,0-.063.015-.2-.038l-.883-.514c-.442-.4-.283-.441-.139-.137.094.2.219.387.324.578.324.589.637,1.183.951,1.777q1.491,2.828,2.937,5.677c1.933,3.785,3.9,7.57,5.637,11.448v-2.019c-1.739,3.879-3.7,7.664-5.637,11.449q-1.452,2.847-2.937,5.676c-.314.595-.627,1.189-.951,1.777-.1.182-.212.361-.305.546-.156.312-.327.3.12-.1l.883-.514s.684-.027.291-.044c-.179-.007-.364.018-.543.024-.594.021-1.189.03-1.784.039-1.873.029-3.747.04-5.621.048-4.152.018-8.305.023-12.457-.021-.722-.008-1.445-.015-2.168-.034-.216-.006-.436-.025-.652-.022-.469.006.06-.016.207.041l.882.514c.428.389.294.442.132.141-.1-.192-.23-.377-.342-.565-.341-.576-.673-1.157-1-1.738q-1.578-2.77-3.1-5.572c-1.161-2.126-2.306-4.261-3.416-6.414-.469-.909-.931-1.82-1.379-2.739q-.287-.588-.563-1.18c-.094-.2-.186-.408-.279-.612-.041-.091-.292-.679-.1-.218a2.067,2.067,0,0,0-2.46-1.4,2.014,2.014,0,0,0-1.4,2.461,158.769,158.769,0,0,0,8.359,16.131c.8,1.419,1.538,3.364,2.721,4.53,1,.982,3.2.658,4.471.672,5.343.058,10.688.048,16.032,0,1.519-.014,3.068.039,4.583-.1,1.862-.167,2.483-2.1,3.247-3.543,2.818-5.339,5.6-10.718,8.15-16.188a5.333,5.333,0,0,0,.744-2.036,5.585,5.585,0,0,0-.785-2.124c-.569-1.215-1.158-2.422-1.752-3.625q-2.19-4.442-4.466-8.841c-1.007-1.955-1.947-3.992-3.1-5.867-.883-1.437-2.238-1.339-3.723-1.369-5.154-.1-10.312-.085-15.466-.064-1.932.009-3.867,0-5.8.065a2.912,2.912,0,0,0-2.143.636,7.649,7.649,0,0,0-1.04,1.585c-2.994,5.124-5.857,10.359-8.482,15.682-.55,1.116-1.073,2.242-1.553,3.39a2.012,2.012,0,0,0,1.4,2.46A2.051,2.051,0,0,0,294.674,147.986Z"/><path class="e" d="M276.86,189.252q5.1-.007,10.19.027c1.252.01,2.5.021,3.756.042.409.007.818.015,1.226.027.246.007,1.155.129.346-.018a2.057,2.057,0,0,0,2.461-1.4,2.018,2.018,0,0,0-1.4-2.46,36.655,36.655,0,0,0-6.155-.192q-5.214-.041-10.427-.029c-2.574,0-2.578,4,0,4Z"/><path class="e" d="M283.51,228.972c3.053.012,6.186.2,9.233-.056,1.634-.137,2.131-1.368,2.806-2.628,2.13-3.977,4.169-8.006,6.18-12.045,1-2.013,2.009-4.028,2.928-6.082a2.061,2.061,0,0,0-.718-2.736,2.014,2.014,0,0,0-2.736.717c-1.739,3.888-3.711,7.679-5.648,11.47q-1.434,2.81-2.9,5.6c-.331.626-.662,1.253-1,1.873-.1.183-.214.362-.308.548-.153.3-.311.239.152-.159l.882-.515c.123-.039.605-.039.168-.035-.2,0-.4.014-.6.019-.726.018-1.453.023-2.18.027-2.086.012-4.172.006-6.258,0-2.574-.011-2.578,3.989,0,4Z"/><path class="e" d="M335.4,186.24c-1.739,3.879-3.7,7.663-5.637,11.448q-1.452,2.847-2.937,5.677c-.314.594-.627,1.188-.951,1.777-.1.181-.212.36-.305.545-.156.312-.327.3.12-.1l.883-.514s.684-.027.291-.043c-.179-.008-.364.017-.543.023-.594.022-1.189.03-1.784.039-1.873.029-3.747.04-5.621.048-4.152.019-8.305.024-12.457-.021-.722-.007-1.445-.015-2.168-.034-.216-.006-.436-.025-.652-.022-.469.007.06-.016.207.041l.882.514c.428.389.294.442.132.142-.1-.193-.23-.378-.342-.566-.341-.575-.673-1.156-1-1.738q-1.578-2.771-3.1-5.572c-1.161-2.126-2.306-4.261-3.416-6.414-.469-.908-.931-1.82-1.379-2.739-.191-.392-.379-.784-.563-1.179-.094-.2-.186-.408-.279-.613-.041-.091-.292-.678-.1-.217v1.063c-.16.383.253-.559.337-.74.2-.426.4-.848.6-1.27.448-.919.911-1.831,1.379-2.739,1.11-2.153,2.255-4.288,3.416-6.414q1.528-2.8,3.1-5.572c.331-.581.663-1.162,1-1.738.105-.177.225-.351.322-.533.16-.3.345-.306-.112.109,1.909-1.735-.926-4.558-2.828-2.828a9.529,9.529,0,0,0-1.457,2.3c-.858,1.492-1.7,3-2.529,4.5-2.021,3.658-4.029,7.335-5.85,11.1-.293.6-.58,1.214-.85,1.829a2.881,2.881,0,0,0-.394,1.993,8.6,8.6,0,0,0,.539,1.256c.714,1.591,1.51,3.146,2.311,4.694,1.915,3.7,3.916,7.365,5.967,11,.57,1.008,1.113,2.047,1.749,3.016a2.717,2.717,0,0,0,2.4,1.323c2.555.141,5.136.073,7.694.079q5.412.012,10.825-.03c1.215-.011,2.431-.021,3.647-.054a3.506,3.506,0,0,0,2.588-.666,12.2,12.2,0,0,0,1.7-2.921q1.48-2.807,2.919-5.637c1.954-3.827,3.943-7.655,5.7-11.577a2.062,2.062,0,0,0-.718-2.737,2.015,2.015,0,0,0-2.736.718Z"/><path class="e" d="M338.065,149.5s-.685.025-.3.045c.176.01.361-.015.538-.021.591-.019,1.184-.025,1.776-.033,1.871-.024,3.742-.031,5.612-.035,4.155-.01,8.31-.007,12.464.047.726.01,1.451.019,2.176.041.219.007.439.024.658.025.475,0-.063.015-.2-.038l-.882-.514c-.443-.4-.284-.441-.139-.137.093.2.218.387.324.578.323.589.637,1.183.95,1.777q1.491,2.828,2.938,5.676c1.932,3.785,3.9,7.57,5.636,11.449v-2.019c-1.739,3.879-3.7,7.664-5.636,11.449q-1.454,2.845-2.938,5.676c-.313.594-.627,1.188-.95,1.777-.1.182-.213.36-.305.546-.157.312-.328.3.12-.1l.882-.515s.684-.027.291-.043c-.178-.007-.364.017-.542.024-.595.021-1.19.029-1.785.038-1.873.029-3.747.04-5.621.049-4.152.018-8.305.023-12.456-.021-.723-.008-1.446-.015-2.168-.035-.217,0-.436-.024-.653-.021-.468.006.061-.017.207.04l.882.515c.428.389.294.442.132.141-.1-.193-.23-.377-.342-.566-.341-.575-.673-1.156-1-1.737q-1.578-2.772-3.1-5.573c-1.161-2.126-2.306-4.26-3.416-6.413-.468-.909-.931-1.821-1.379-2.74-.19-.391-.379-.784-.562-1.179-.095-.2-.187-.408-.28-.612-.041-.092-.291-.679-.1-.218a2.066,2.066,0,0,0-2.46-1.4,2.013,2.013,0,0,0-1.4,2.46,144.157,144.157,0,0,0,7.094,13.857c1.01,1.829,2.023,3.659,3.084,5.459a3.168,3.168,0,0,0,2.746,1.967c3.715.219,7.48.086,11.2.083,3.861,0,7.748.085,11.606-.1a3,3,0,0,0,2.751-1.827c1-1.812,1.94-3.657,2.887-5.5q1.92-3.729,3.791-7.483a55.513,55.513,0,0,0,2.977-6.216c.429-1.232-.437-2.533-.967-3.644-.536-1.126-1.086-2.246-1.639-3.364q-1.861-3.761-3.782-7.492c-1.01-1.967-2.02-3.937-3.074-5.881-.65-1.2-1.223-2.065-2.72-2.171-3.625-.258-7.318-.109-10.949-.115-3.94-.006-7.893-.066-11.832.073a4.129,4.129,0,0,0-1.209.116,2.058,2.058,0,0,0-1.4,2.46,2.015,2.015,0,0,0,2.46,1.4Z"/><path class="a" d="M121.349,245.212c1.472-6.531,11.21-64.48,12.689-67.05,1.31-2.274,3.723-7.73,8.638-12.088,2.6-2.309,9-6.988,18.754-11.529,3.879-1.807,8.839-4.251,12.706-5.6l.235-.082,2.781,3.038a32.163,32.163,0,0,0,49.365-2.319c3.543,1.389,7.669,3.41,11,4.961,9.752,4.541,16.15,9.22,18.754,11.529,4.915,4.358,7.328,9.814,8.638,12.088,1.479,2.57,10.709,64.386,12,67.05Z"/><path class="f" d="M155.9,156.771c-8.489-7.464-7.923-18.866-6.521-29.284a79.042,79.042,0,0,1,2.347-12.656,56.08,56.08,0,0,0,1.7-9.172L157.08,77.1a67.3,67.3,0,0,1,2.439-12.6c4.624-14.048,19.341-24.867,35.442-26.057,24.787-.82,39.238,9.206,45.37,23.29a61.659,61.659,0,0,1,3.749,13.635,232.473,232.473,0,0,1,3.827,40.365,85.215,85.215,0,0,0,.436,10.564c.737,5.579,2.288,11.7,1.722,17.3s-4.493,10.91-10.684,10.889Z"/><path class="a" d="M186.935,159.12a32.134,32.134,0,0,1-9.783-7.217l-1.868-2.039-.1-.7c-.04-.27,2.58-1.14,2.83-1.23,3.79-1.37,3.64-3.8,4.12-6.53a50.389,50.389,0,0,0,.726-5.522,31.751,31.751,0,0,1-7.332-6.573,34.457,34.457,0,0,1-6.568-12.819l-1.294-.2a8.537,8.537,0,0,1-3.971-1.79,12.883,12.883,0,0,1-3.331-4.371,20.268,20.268,0,0,1-2.066-10.741A6.777,6.777,0,0,1,159,96.666a4.785,4.785,0,0,1,3.439-2.286,5.064,5.064,0,0,1,4.053,1.186l.47.426c1.916-2.979,5.283-5.307,7.92-7.958,1.309-1.315,2.546-2.606,3.712-3.9.055.62.09.983.09.983.1,1.092,1.783,1.313,2.986,1.123a19.424,19.424,0,0,0,7.911-3.13c-.1.585-.165.925-.165.925-.21,1.177.89,2.3,2.165,2.631a7.153,7.153,0,0,0,3.9-.347,24.18,24.18,0,0,0,11.341-8.3,47.289,47.289,0,0,0,4.853-7.1c.222.581.385,1,.385,1,2.985,7,14.586,20.036,22.413,23.661a5.015,5.015,0,0,1,4.048-1.2,4.785,4.785,0,0,1,3.439,2.286,6.76,6.76,0,0,1,.708,2.721,20.258,20.258,0,0,1-2.066,10.741,12.88,12.88,0,0,1-3.33,4.371,8.546,8.546,0,0,1-3.971,1.79l-.679.1c-.327,1.22-.693,2.248-.873,2.793-1.108,3.008-7.1,13.107-14.762,17.428.14,1.553.38,2.965.7,4.788.48,2.73.33,5.16,4.12,6.53.25.09,2.83.95,2.83,1.23v2.677a32.02,32.02,0,0,1-37.7,7.281Z"/><path class="b" d="M175.737,153.317a34.17,34.17,0,0,0,40.879,7.131,34.1,34.1,0,0,0,9.919-7.724c1.7-1.923-1.12-4.762-2.828-2.828a30.48,30.48,0,0,1-36.03,7.367,31,31,0,0,1-9.111-6.774c-1.755-1.891-4.579.942-2.829,2.828Z"/><path class="b" d="M214.99,136.622c.185,1.981.562,3.928.866,5.892a11.579,11.579,0,0,0,1.133,4.084,7.727,7.727,0,0,0,4.3,3.268c.415.149.834.289,1.248.445q.216.079.429.165.12.047.237.1-.406-.174-.2-.083a3.588,3.588,0,0,0,.325.156q.072.037.141.081a1.721,1.721,0,0,1-.759-1.033,2,2,0,0,0,3.858-1.063c-.386-1.5-2.337-1.96-3.6-2.409-.185-.065-.371-.127-.555-.193-.091-.032-.179-.065-.27-.1.285.108-.347-.166-.411-.2-.154-.082-.306-.169-.453-.264-.092-.059-.182-.12-.271-.184q.264.208.1.071c-.1-.129-.259-.232-.373-.354-.064-.068-.126-.139-.185-.211.156.207.191.251.107.132-.04-.094-.489-.668-.42-.752.114.277.133.315.055.112-.029-.082-.057-.166-.083-.25-.04-.126-.075-.255-.108-.383a19.29,19.29,0,0,1-.343-1.91c-.133-.882-.3-1.759-.442-2.639-.034-.206-.067-.411-.1-.617-.011-.069-.123-.843-.072-.466-.062-.463-.112-.927-.155-1.392a2.043,2.043,0,0,0-2-2,2.022,2.022,0,0,0-2,2Z"/><path class="b" d="M177.109,149.693a1.744,1.744,0,0,1-.763,1.031c.048-.03.1-.058.146-.084.093-.037.2-.092.286-.138q.285-.125-.135.055l.248-.1c.127-.05.255-.1.383-.146.42-.157.846-.3,1.268-.451a7.634,7.634,0,0,0,4.344-3.361,12.529,12.529,0,0,0,1.1-4.1c.343-2.171.718-4.327.878-6.522a2.01,2.01,0,0,0-2-2,2.049,2.049,0,0,0-2,2c-.148,2.025-.441,3.553-.758,5.611-.1.657-.185,1.318-.335,1.966-.069.3-.162.584-.254.875-.118.37.209-.34-.049.094-.083.14-.167.282-.247.424-.206.363.239-.225-.04.055-.144.146-.286.291-.436.432-.289.273.27-.134-.128.09-.159.089-.309.194-.47.281-.069.037-.671.309-.454.225-.094.036-.189.07-.284.1-.2.07-.393.135-.588.205-1.137.4-3.356.937-3.566,2.4a2.056,2.056,0,0,0,1.4,2.46,2.022,2.022,0,0,0,2.461-1.4Z"/><path class="b" d="M173.605,147.019c-3.261,1.152-6.409,2.615-9.536,4.083-3.186,1.5-6.382,2.968-9.479,4.644a73.969,73.969,0,0,0-12.944,8.579c-4.045,3.459-6.973,8.1-9.335,12.828a18.5,18.5,0,0,0-1.222,4.329c-3.28,15.007-5.694,30.226-8.385,45.346-1.058,5.947-1.963,11.956-3.284,17.853-.561,2.507,3.294,3.578,3.857,1.063,1.1-4.9,1.863-9.879,2.743-14.816,1.46-8.184,2.905-16.371,4.384-24.553,1.294-7.162,2.578-14.329,4.042-21.459.38-1.847.716-3.735,1.27-5.541.034-.109.081-.221.1-.332.066-.294.267-.1-.109.237a7.413,7.413,0,0,0,.982-1.821,41.611,41.611,0,0,1,4.22-6.641c3.543-4.365,8.3-7.383,13.138-10.186,3.416-1.98,6.962-3.685,10.53-5.367a109.3,109.3,0,0,1,10.086-4.389c2.411-.852,1.373-4.718-1.063-3.857Z"/><path class="b" d="M224.278,150.876a101.252,101.252,0,0,1,9.339,4.037c3.383,1.593,6.763,3.178,10.028,5.007,4.425,2.479,8.916,5.177,12.463,8.753A33.661,33.661,0,0,1,261.452,176c.514.915.994,1.849,1.5,2.768.3.547.132.557.09.065a1.95,1.95,0,0,0,.094.265c.458,1.708.8,3.437,1.137,5.174,1.359,7.11,2.517,14.259,3.7,21.4,1.38,8.323,2.73,16.651,4.135,24.971.534,3.167,1.073,6.335,1.654,9.494a46.239,46.239,0,0,0,1.074,5.2,6.844,6.844,0,0,0,.341.885,2.016,2.016,0,0,0,2.737.717,2.045,2.045,0,0,0,.717-2.736c.277.6.122.325.026-.06-.072-.288-.144-.576-.209-.866-.208-.923-.387-1.853-.563-2.782-.562-2.956-1.07-5.921-1.575-8.886-1.41-8.276-2.753-16.564-4.122-24.847-1.239-7.494-2.456-15-3.851-22.463-.368-1.969-.695-3.974-1.237-5.905a12.071,12.071,0,0,0-1.106-2.414,50.512,50.512,0,0,0-4.33-6.967c-3.278-4.28-7.59-7.424-12.128-10.258a147.7,147.7,0,0,0-19.31-9.775c-1.608-.7-3.23-1.376-4.885-1.961-2.432-.86-3.478,3-1.063,3.857Z"/><path class="g" d="M233.842,170.4c3.46-1.611,15.71-10.219,15.42-10.66-1.03-1.568-11.816-6.277-19.346-9.86-4.132-1.966-8.965-3.672-9.695-4.025-5.147,8.446-11.889,23.166-17.143,31.857C208.709,178.862,218.13,177.709,233.842,170.4Z"/><path class="g" d="M165.866,170.4c-3.46-1.611-15.71-10.219-15.42-10.66,1.03-1.568,11.816-6.277,19.346-9.86,4.132-1.966,8.539-4.226,9.268-4.579,5.148,8.446,12.316,23.72,17.57,32.411C191,178.862,181.578,177.709,165.866,170.4Z"/><path class="b" d="M234.851,172.122a58.859,58.859,0,0,0,7.715-4.8,75.326,75.326,0,0,0,7.562-5.555c1.073-.95,1.588-2.291.5-3.512a11.648,11.648,0,0,0-3.143-2.16c-4.059-2.233-8.327-4.1-12.524-6.052-2.613-1.216-5.205-2.471-7.863-3.585-1.291-.541-2.591-1.059-3.9-1.566-.477-.185-.955-.368-1.431-.554-.131-.051-.262-.1-.394-.154-.105-.041-.21-.084-.314-.126.274.119.33.141.168.068a2.053,2.053,0,0,0-2.736.717c-6.26,10.316-10.921,21.519-17.144,31.856a2.016,2.016,0,0,0,1.195,2.938,31.419,31.419,0,0,0,12.521-.451,92.008,92.008,0,0,0,19.784-7.063,2.016,2.016,0,0,0,.718-2.736,2.047,2.047,0,0,0-2.737-.717,88.388,88.388,0,0,1-18.539,6.6,34.654,34.654,0,0,1-6.131.81,25.015,25.015,0,0,1-2.6-.038c-.374-.026-.747-.061-1.118-.108.443.056-.074-.012-.17-.029-.222-.04-.445-.079-.667-.123l1.2,2.938c6.223-10.337,10.884-21.54,17.143-31.856l-2.736.717c2.258,1.04,4.645,1.809,6.933,2.784,3.065,1.305,6.06,2.791,9.081,4.2,2.744,1.276,5.494,2.548,8.194,3.917,1.011.513,2.021,1.035,3,1.614.34.2.672.415,1,.635.365.243-.253-.036.073.05.4.1.321,1.169-.151-.489v-1.063c.043-.255.6-.777.272-.569a4.9,4.9,0,0,0-.458.41c-.557.477-.775.63-1.189.943-1.467,1.108-2.968,2.171-4.479,3.216a63.867,63.867,0,0,1-8.653,5.447C230.508,169.771,232.536,173.221,234.851,172.122Z"/><path class="b" d="M207.653,174.127c7.593-1.077,14.912-4.1,21.7-7.58a90.876,90.876,0,0,0,8.725-5.068,36.241,36.241,0,0,0,5.658-4.361c1.825-1.821-1-4.65-2.828-2.829a30.243,30.243,0,0,1-5.09,3.9,91.924,91.924,0,0,1-8.484,4.91c-6.5,3.332-13.473,6.145-20.742,7.175a2.015,2.015,0,0,0-1.4,2.461,2.054,2.054,0,0,0,2.461,1.4Z"/><path class="b" d="M166.876,168.669a63.867,63.867,0,0,1-8.653-5.447c-1.482-1.025-2.954-2.068-4.393-3.152-.492-.37-.679-.5-1.275-1.007-.143-.122-.277-.266-.427-.379-.372-.281.2.268.242.538v1.063q-.711,1.071-.328.65l.083-.079c-.008-.009.3-.224.1-.084.316-.223.642-.428.974-.627.959-.575,1.953-1.092,2.95-1.6,2.629-1.338,5.308-2.58,7.982-3.824,5.353-2.492,10.634-5.109,15.94-7.7l-2.736-.717c6.38,10.51,11.226,21.878,17.569,32.41l1.2-2.938a10.153,10.153,0,0,1-1.955.26,24.856,24.856,0,0,1-2.487.042,34.592,34.592,0,0,1-6.242-.814,88.388,88.388,0,0,1-18.539-6.6,2.059,2.059,0,0,0-2.737.717,2.016,2.016,0,0,0,.718,2.736,92.008,92.008,0,0,0,19.784,7.063,31.419,31.419,0,0,0,12.521.451,2.016,2.016,0,0,0,1.195-2.938c-6.343-10.532-11.189-21.9-17.57-32.41a2.051,2.051,0,0,0-2.736-.718c-4.089,2-8.138,4.063-12.262,5.987-4.257,1.986-8.566,3.892-12.722,6.084-1.983,1.046-6.4,3.134-3.8,5.84a43.744,43.744,0,0,0,6.7,5.034,64.931,64.931,0,0,0,8.885,5.607C167.17,173.22,169.2,169.773,166.876,168.669Z"/><path class="b" d="M193.119,170.269c-7.269-1.03-14.245-3.843-20.742-7.175a91.924,91.924,0,0,1-8.484-4.91,30.231,30.231,0,0,1-5.09-3.9c-1.824-1.82-4.653,1.007-2.828,2.829a36.287,36.287,0,0,0,5.658,4.361,90.876,90.876,0,0,0,8.725,5.068c6.785,3.481,14.1,6.5,21.7,7.58a2.069,2.069,0,0,0,2.461-1.4,2.016,2.016,0,0,0-1.4-2.461Z"/><path class="b" d="M151.394,192.176c.041,8.088,2.106,15.96,2.973,23.966a94.945,94.945,0,0,1,.411,15.789c-.249,4.267-.732,8.518-1.325,12.75a2.067,2.067,0,0,0,1.4,2.46,2.014,2.014,0,0,0,2.46-1.4,134.955,134.955,0,0,0,1.63-20.839A122.7,122.7,0,0,0,157,206.612a90.411,90.411,0,0,1-1.6-14.436c-.013-2.573-4.013-2.578-4,0Z"/><path class="b" d="M247.39,192.176c-.052,7.6-2.539,14.907-3.56,22.385a58.94,58.94,0,0,0-.166,8.766q.072,4.608.406,9.2c.306,4.241.775,8.467,1.333,12.681a2.065,2.065,0,0,0,2,2c.97,0,2.142-.921,2-2a190.787,190.787,0,0,1-1.716-20.688c-.065-2.832-.089-5.675.006-8.5.123-3.671,1.26-7.424,2-11.01a66.163,66.163,0,0,0,1.7-12.833c.017-2.574-3.983-2.577-4,0Z"/><path class="d" d="M177.6,213.524a60.828,60.828,0,0,1-1.574,12.742,96.438,96.438,0,0,0,21.03-1.461.845.845,0,0,0,.849-1.205,107.273,107.273,0,0,1-1.28-33.241"/><path class="d" d="M225.23,213.524a60.828,60.828,0,0,0,1.574,12.742,96.429,96.429,0,0,1-21.03-1.461.845.845,0,0,1-.849-1.205,107.272,107.272,0,0,0,1.279-33.241"/><path class="d" d="M193.642,181.915a29.866,29.866,0,0,0-20.8,23.859,4.368,4.368,0,0,0,.281,2.854,4.547,4.547,0,0,0,1.429,1.332,71.076,71.076,0,0,0,12.85,6.972c2.463-11.681,5.144-23.835,12.617-33.145"/><path class="d" d="M206.773,180.576c10.717,3.085,21.624,14.16,23.219,25.2a4.368,4.368,0,0,1-.282,2.854,4.536,4.536,0,0,1-1.429,1.332,71.067,71.067,0,0,1-12.849,6.972A154.042,154.042,0,0,0,211,199.47a60.918,60.918,0,0,0-3.5-8.4,43.066,43.066,0,0,0-4.684-7.281"/><path class="d" d="M193.516,171.946c.282,2.555.841,8.555,1.851,10.829a24.973,24.973,0,0,0,5.769,1.531,30.113,30.113,0,0,0,5.158-2.4c.565-2.028.743-7.878.835-10.27C206.287,171.5,194.885,171.946,193.516,171.946Z"/><path class="b" d="M175.6,213.524a60.331,60.331,0,0,1-1.5,12.21,2.028,2.028,0,0,0,1.928,2.532,98.049,98.049,0,0,0,14.857-.55q1.935-.222,3.863-.512a12.911,12.911,0,0,0,3.629-.742c2.458-1.191,1.288-4.165.936-6.251a106.264,106.264,0,0,1-.686-29.852,2.011,2.011,0,0,0-2-2,2.048,2.048,0,0,0-2,2,108.705,108.705,0,0,0-.647,16.912q.168,4.112.65,8.2.258,2.19.594,4.369.149.957.314,1.911a7.535,7.535,0,0,1,.4,2.118l.514-.882c.234-.231-.831.047-.873.054q-.591.1-1.184.194c-.851.135-1.7.259-2.558.366q-2.619.328-5.255.51a98.323,98.323,0,0,1-10.555.154l1.929,2.532a65.781,65.781,0,0,0,1.645-13.274c.054-2.575-3.946-2.574-4,0Z"/><path class="b" d="M223.23,213.524a65.781,65.781,0,0,0,1.645,13.274l1.929-2.532a98.841,98.841,0,0,1-10.555-.154q-2.634-.183-5.256-.51-1.163-.147-2.32-.328-.712-.111-1.422-.232c-.151-.026-1.139-.317-.872-.054l.514.882a6.267,6.267,0,0,1,.359-1.88q.168-.954.318-1.91.342-2.178.6-4.367.505-4.206.678-8.442a108.582,108.582,0,0,0-.647-16.912,2.061,2.061,0,0,0-2-2,2.013,2.013,0,0,0-2,2,106.226,106.226,0,0,1-.686,29.852c-.352,2.089-1.525,5.058.936,6.251a12.918,12.918,0,0,0,3.63.742q1.926.288,3.863.512a98.044,98.044,0,0,0,14.857.55,2.028,2.028,0,0,0,1.928-2.532,60.26,60.26,0,0,1-1.5-12.21c-.054-2.57-4.055-2.579-4,0Z"/><path class="b" d="M193.108,179.983a31.976,31.976,0,0,0-16.695,11.975,31.133,31.133,0,0,0-4.653,9.429,22.817,22.817,0,0,0-1.011,5.229c-.121,2.4,1.1,3.913,2.981,5.2a73.279,73.279,0,0,0,13.138,7.042,2.009,2.009,0,0,0,2.461-1.4c2.336-11.064,4.769-22.851,11.885-31.977a2.064,2.064,0,0,0,0-2.828,2.012,2.012,0,0,0-2.828,0c-7.608,9.757-10.409,21.877-12.915,33.742l2.461-1.4a67.733,67.733,0,0,1-6.529-3.169,36.932,36.932,0,0,1-6.167-3.826c-1.2-1.025-.084-3.921.282-5.214a26.224,26.224,0,0,1,1.986-5.008,27.994,27.994,0,0,1,16.668-13.946c2.463-.728,1.414-4.589-1.064-3.857Z"/><path class="b" d="M206.241,182.505c7.7,2.277,14.506,8.087,18.57,14.948a25.788,25.788,0,0,1,2.439,5.338c.407,1.287,1.561,4.171.347,5.215a36.6,36.6,0,0,1-6.168,3.825A68.462,68.462,0,0,1,214.9,215l2.46,1.4c-2.529-11.983-5.361-24.229-13.131-34.027a2.013,2.013,0,0,0-2.829,0,2.051,2.051,0,0,0,0,2.829c7.275,9.173,9.742,21.075,12.1,32.261a2,2,0,0,0,2.46,1.4,74.953,74.953,0,0,0,11.8-6.159c1.7-1.1,3.648-2.2,4.169-4.305.457-1.847-.078-4-.571-5.792-2-7.276-7.041-13.6-12.946-18.143a34.23,34.23,0,0,0-11.115-5.814c-2.473-.731-3.53,3.128-1.063,3.858Z"/><path class="b" d="M191.516,171.946c.246,2.237.478,4.474.82,6.7a32.323,32.323,0,0,0,.628,3.222,11.373,11.373,0,0,0,.365,1.173,3.079,3.079,0,0,0,.624,1.149,4.6,4.6,0,0,0,1.687.831,24.5,24.5,0,0,0,4.093,1.07,4.677,4.677,0,0,0,2.367.017,18.033,18.033,0,0,0,2.46-1.045c.69-.344,1.364-.716,2.047-1.072a3.433,3.433,0,0,0,1.258-.873,2.589,2.589,0,0,0,.457-1.1,27,27,0,0,0,.424-3.206c.213-2.387.291-4.785.383-7.179a2.007,2.007,0,0,0-1.468-1.929,16.892,16.892,0,0,0-2.764-.083c-1.435.026-2.869.069-4.3.112-2.358.072-4.72.205-7.079.21a2,2,0,0,0,0,4c2.309,0,4.622-.135,6.93-.2,1.425-.044,2.851-.086,4.277-.114.513-.01,1.026-.019,1.539-.018.293,0,1.384.109.335-.045l-1.468-1.928c-.066,1.727-.128,3.453-.235,5.178-.059.95-.128,1.9-.231,2.846q-.035.315-.074.628c.071-.573-.013.064-.032.177-.051.306-.111.609-.192.909l.92-1.195a27.231,27.231,0,0,1-4.681,2.2h1.064a24.69,24.69,0,0,1-5.769-1.531l1.195.919c.18.416.068.157-.014-.081-.059-.173-.112-.348-.162-.523-.122-.426-.223-.858-.316-1.292-.206-.971-.364-1.952-.5-2.935-.017-.121-.1-.772-.056-.4-.031-.244-.063-.489-.093-.733q-.087-.7-.166-1.409c-.092-.816-.176-1.633-.266-2.45a2.059,2.059,0,0,0-2-2A2.014,2.014,0,0,0,191.516,171.946Z"/><path class="b" d="M235.885,96.98a2.981,2.981,0,0,1,4.268.561,5.958,5.958,0,0,1,.584,3.026,17.454,17.454,0,0,1-.251,3.587c-.779,4.267-2.979,9.357-7.715,10.206a2.018,2.018,0,0,0-1.4,2.46,2.043,2.043,0,0,0,2.46,1.4c6.986-1.252,10.314-9.154,10.84-15.486.266-3.2.046-6.923-2.731-9.008a7.1,7.1,0,0,0-8.887.429,2.015,2.015,0,0,0,0,2.828,2.044,2.044,0,0,0,2.829,0Z"/><path class="b" d="M231.251,112.518a19.434,19.434,0,0,1-1.141,5.278c-.133.4-.266.808-.423,1.2.2-.5.019-.051-.036.061-.1.206-.2.414-.3.618a43.162,43.162,0,0,1-3.739,6.029c-3.3,4.54-7.787,9.354-13.457,10.682-2.505.587-1.444,4.445,1.064,3.857,6.627-1.552,11.78-7,15.67-12.278,3.343-4.54,6.132-9.685,6.36-15.451.1-2.574-3.9-2.57-4,0Z"/><path class="b" d="M167.908,94.152a7.1,7.1,0,0,0-8.887-.429c-2.778,2.081-3,5.808-2.731,9.008.526,6.331,3.854,14.234,10.84,15.486a2.055,2.055,0,0,0,2.46-1.4,2.018,2.018,0,0,0-1.4-2.461c-4.736-.849-6.936-5.939-7.715-10.206a17.266,17.266,0,0,1-.253-3.39,6.811,6.811,0,0,1,.5-3.088,2.965,2.965,0,0,1,4.351-.7,2.053,2.053,0,0,0,2.828,0,2.015,2.015,0,0,0,0-2.828Z"/><path class="b" d="M165.937,112.158a39.1,39.1,0,0,0,8.451,18.893c4.659,5.46,10.808,9.432,18.035,10.205a2.013,2.013,0,0,0,2-2,2.045,2.045,0,0,0-2-2c-6.282-.672-11.551-4.633-15.485-9.363-3.974-4.777-6.089-10.745-7.144-16.8a2.016,2.016,0,0,0-2.46-1.4,2.045,2.045,0,0,0-1.4,2.46Z"/><path class="b" d="M194.338,123.172a13.905,13.905,0,0,0,6.694,1.556,10.961,10.961,0,0,0,6.814-2.035,2,2,0,0,0,0-2.829,2.064,2.064,0,0,0-2.829,0c.622-.484.2-.159.044-.056-.131.084-.267.162-.405.234-.18.095-.65.216-.076.055-.188.053-.371.143-.558.2a10.705,10.705,0,0,1-1.562.357c.294-.048.132-.018-.068,0-.154.015-.307.028-.461.038-.369.024-.739.033-1.109.031q-.5,0-.994-.036c-.152-.01-.3-.023-.455-.038-.078-.008-.634-.108-.14-.013a14.553,14.553,0,0,1-1.459-.324c-.2-.061-.4-.134-.6-.2-.483-.165.366.18-.071-.026-.25-.118-.5-.24-.741-.37a2,2,0,0,0-2.019,3.454Z"/><path class="b" d="M199.878,107.581a30.869,30.869,0,0,1,.723,3.306l-.072-.532a1.989,1.989,0,0,1,.013.456l.071-.531a1.115,1.115,0,0,1-.05.2l.2-.478a.8.8,0,0,1-.072.132l.313-.405a.728.728,0,0,1-.108.107l.4-.313a1.971,1.971,0,0,1-.261.138l.477-.2a1.94,1.94,0,0,1-.441.129l.532-.072a1.687,1.687,0,0,1-.414,0l.531.072c-.156-.022-.309-.06-.465-.081a1.526,1.526,0,0,0-.8-.036,1.487,1.487,0,0,0-.743.238A2,2,0,0,0,199,112.45a1.912,1.912,0,0,0,1.195.919c.383.052.754.148,1.143.165a3.7,3.7,0,0,0,1.72-.414,2.544,2.544,0,0,0,1.392-1.671,4.078,4.078,0,0,0-.016-1.766c-.18-1.065-.426-2.121-.7-3.165a2,2,0,0,0-3.857,1.063Z"/><path class="b" d="M182.694,98.139c-.552,1.794-.192,5.92,3.207,6.272,4.491-.027,4.73-5.016,3.218-7.362C187.881,95.128,184.241,94.329,182.694,98.139Z"/><path class="b" d="M218.664,98.139c.552,1.794.192,5.921-3.206,6.272-4.492-.027-4.731-5.017-3.219-7.362C213.477,95.128,217.117,94.33,218.664,98.139Z"/><path class="b" d="M157.315,155.357c-6.729-6.027-7.253-15.019-6.451-23.465a96.765,96.765,0,0,1,2.291-14.729,77.72,77.72,0,0,0,1.828-8.2c.406-2.82.741-5.651,1.1-8.477l2.238-17.479c.709-5.54,1.159-11.22,2.7-16.607,2.308-8.055,7.9-14.823,14.857-19.369a41.409,41.409,0,0,1,11.535-5.244,43.118,43.118,0,0,1,13.592-1.326c7.911.33,15.938,1.973,22.881,5.909A34.244,34.244,0,0,1,237.134,59.74a46.52,46.52,0,0,1,4.411,13.026c1.141,5.513,2,11.1,2.68,16.685q1.042,8.6,1.441,17.259c.264,5.723.013,11.484.434,17.2.4,5.4,1.89,10.671,2.068,16.094.131,3.956-.58,8.136-3.829,10.776a7.915,7.915,0,0,1-4.958,1.707c-2.572.035-2.579,4.035,0,4a12.416,12.416,0,0,0,10.685-6.424c2.551-4.466,2.34-9.722,1.69-14.657-.385-2.928-.948-5.827-1.362-8.75a63.549,63.549,0,0,1-.475-8.513c-.039-6.171-.213-12.33-.685-18.485q-.693-9.043-2.08-18.017a102.62,102.62,0,0,0-3.663-17.222A38.4,38.4,0,0,0,231.12,46.457,46.911,46.911,0,0,0,209,37.248a61.336,61.336,0,0,0-14.783-.742,45.137,45.137,0,0,0-13.907,3.606,42.393,42.393,0,0,0-19.842,17.4,41.965,41.965,0,0,0-4.738,14.812c-.9,6-1.577,12.047-2.348,18.068-.776,6.064-1.434,12.157-2.355,18.2-.437,2.869-1.285,5.586-1.944,8.4-.666,2.848-1.063,5.749-1.452,8.645-1.206,8.988-2.35,18.916,2.421,27.134a22.394,22.394,0,0,0,4.439,5.409c1.912,1.713,4.75-1.106,2.828-2.828Z"/><path class="b" d="M210.335,72.925c2.087,4.805,5.688,9.089,9.18,12.93,3.763,4.139,8.02,8.25,12.963,10.953,2.26,1.236,4.28-2.217,2.019-3.454-4.66-2.548-8.609-6.427-12.153-10.327-3.282-3.612-6.594-7.607-8.555-12.121a2.013,2.013,0,0,0-2.737-.717,2.051,2.051,0,0,0-.717,2.736Z"/><path class="b" d="M211.59,66.165a36.082,36.082,0,0,1-8.305,12.852,22.528,22.528,0,0,1-5.9,4.383,13.727,13.727,0,0,1-3.715,1.331,3.266,3.266,0,0,1-1.649-.02c-.568-.212-.626-.357-.6-.676.206-2.566-3.8-2.553-4,0a4.419,4.419,0,0,0,2.484,4.1,7.416,7.416,0,0,0,5.263.352,22.763,22.763,0,0,0,8.981-4.827,39.63,39.63,0,0,0,6.563-7.469,35.54,35.54,0,0,0,4.738-8.965c.858-2.433-3-3.479-3.857-1.064Z"/><path class="b" d="M200.183,65.276a36.454,36.454,0,0,1-2.9,5.386,64.289,64.289,0,0,1-5,7.283,18.269,18.269,0,0,1-5.9,4.726,17.067,17.067,0,0,1-3.6,1.308,9.221,9.221,0,0,1-1.693.318c-.205.011-.456-.046-.655-.03-.532.043.077-.156.179.318-.541-2.515-4.4-1.451-3.857,1.063.8,3.7,5.825,2.636,8.327,1.839a21.823,21.823,0,0,0,8.6-5.163,46.566,46.566,0,0,0,6.337-8.5,40.039,40.039,0,0,0,4.017-7.485,2.018,2.018,0,0,0-1.4-2.46,2.041,2.041,0,0,0-2.46,1.4Z"/><path class="b" d="M186.416,68.7a53.423,53.423,0,0,1-9.984,14.837c-2.053,2.222-4.221,4.28-6.477,6.292-2.2,1.956-4.411,4.076-5.6,6.821a2.066,2.066,0,0,0,.718,2.736,2.014,2.014,0,0,0,2.736-.717c1.142-2.646,3.3-4.537,5.419-6.409a84.633,84.633,0,0,0,6.589-6.507A55.669,55.669,0,0,0,189.87,70.723a2.064,2.064,0,0,0-.718-2.736,2.014,2.014,0,0,0-2.736.717Z"/><path class="b" d="M160.625,137.832c.254,4.856.593,11.376,5.413,14.052a2,2,0,0,0,2.019-3.454c-.2-.114-.395-.247-.595-.367.316.19.012.011-.065-.056s-.168-.15-.249-.229c-.161-.158-.3-.329-.455-.5-.2-.218.242.369-.042-.065-.062-.094-.126-.186-.185-.282-.121-.192-.232-.389-.336-.591-.052-.1-.1-.2-.151-.307-.239-.485.07.218-.038-.076-.17-.465-.333-.928-.462-1.408-.121-.451-.22-.908-.305-1.368-.047-.255-.09-.512-.128-.769,0-.031-.053-.369-.028-.19s-.031-.247-.036-.287c-.169-1.365-.285-2.735-.357-4.108a2,2,0,0,0-4,0Z"/><path class="b" d="M227.348,140.757a14.817,14.817,0,0,1-.556,1.581l.2-.478a14.667,14.667,0,0,1-1.85,3.17l.313-.405q-.462.6-.979,1.144a2,2,0,0,0,2.828,2.828,16.6,16.6,0,0,0,3.9-6.777,2,2,0,0,0-3.857-1.063Z"/><path class="b" d="M235.9,131.377c.989,3.4,1.992,7.071,1.4,10.64a11.673,11.673,0,0,1-4.4,7.381,2.011,2.011,0,0,0,0,2.828,2.049,2.049,0,0,0,2.828,0,15.029,15.029,0,0,0,5.425-9.146c.75-4.324-.19-8.616-1.4-12.767-.717-2.466-4.578-1.417-3.857,1.064Z"/><path class="b" d="M228.777,68.071a28.262,28.262,0,0,1,6.016,12.238,2,2,0,1,0,3.857-1.064,32.513,32.513,0,0,0-7.044-14,2.017,2.017,0,0,0-2.829,0,2.044,2.044,0,0,0,0,2.829Z"/><path class="a" d="M233.38,117.99c-.578,1.571-.17,5.2,3.458,5.524,4.792,0,5.017-4.375,3.39-6.442A4.126,4.126,0,0,0,233.38,117.99Z"/><path class="a" d="M160.46,118.705c-.578,1.571-.169,5.2,3.458,5.524,4.792,0,5.018-4.375,3.39-6.443A4.126,4.126,0,0,0,160.46,118.705Z"/><path class="b" d="M231.451,117.458a6.056,6.056,0,0,0-.208,2.814,6.392,6.392,0,0,0,1.439,3.306c1.835,2.2,5.253,2.414,7.665,1.116a5.594,5.594,0,0,0,2.716-5.757,6.163,6.163,0,0,0-1.008-2.742,6.022,6.022,0,0,0-2.933-2.187,6.161,6.161,0,0,0-3.909-.1,6.063,6.063,0,0,0-3.56,3.072A2,2,0,0,0,235.107,119a5.493,5.493,0,0,1,.277-.5c.049-.076.1-.149.152-.224.184-.269-.329.383-.1.132.1-.113.2-.226.316-.33.059-.055.123-.1.181-.159.154-.145-.47.33-.154.123.118-.077.235-.153.359-.219.066-.035.134-.066.2-.1.288-.144-.508.186-.2.089a4.936,4.936,0,0,1,.845-.206l-.531.071a4.627,4.627,0,0,1,1.134.006l-.531-.072a4.816,4.816,0,0,1,.713.154c.11.033.216.073.323.11.306.107-.266-.106-.259-.111a1.315,1.315,0,0,1,.18.085,5.156,5.156,0,0,1,.553.332c.227.15-.393-.324-.232-.181.038.034.079.065.117.1a3.163,3.163,0,0,1,.233.23c.033.036.063.074.1.11.175.2-.312-.426-.194-.249.053.077.108.153.157.233.106.17.175.365.281.533,0,0-.223-.565-.124-.288.017.046.035.092.051.138.033.093.062.187.089.283a4.855,4.855,0,0,1,.132.643l-.071-.531a4.61,4.61,0,0,1,.006,1.138l.072-.532a4.227,4.227,0,0,1-.1.5q-.035.13-.078.258c-.013.038-.029.075-.041.113-.086.266.206-.441.121-.285s-.152.3-.246.45c-.022.034-.047.066-.068.1-.147.236.3-.361.183-.234-.065.068-.121.143-.186.21s-.122.117-.184.175c-.293.279.4-.273.124-.09a4.541,4.541,0,0,1-.5.3c-.389.191.448-.16.107-.042-.109.038-.218.076-.329.108a5.436,5.436,0,0,1-.736.154l.532-.071a4.692,4.692,0,0,1-1.129.041l.532.071a5.033,5.033,0,0,1-.74-.152c-.068-.02-.28-.134-.35-.12.011,0,.485.223.26.108-.058-.029-.116-.056-.173-.086-.1-.053-.195-.11-.289-.172-.041-.027-.08-.056-.12-.083-.206-.137.234.182.234.181a5.643,5.643,0,0,0-.448-.439c-.161-.176.185.246.185.245-.007-.033-.06-.08-.08-.109-.055-.085-.112-.168-.163-.255s-.1-.174-.142-.264c-.019-.039-.036-.081-.056-.12-.11-.212.125.3.125.3a3.288,3.288,0,0,0-.18-.558,5.081,5.081,0,0,1-.107-.563l.072.532a5.1,5.1,0,0,1,0-1.294l-.072.532a3.706,3.706,0,0,1,.173-.722,2.01,2.01,0,0,0-1.4-2.46A2.051,2.051,0,0,0,231.451,117.458Z"/><path class="b" d="M158.532,118.173a6.041,6.041,0,0,0-.208,2.814,6.373,6.373,0,0,0,1.439,3.305c1.834,2.2,5.252,2.415,7.665,1.116a5.592,5.592,0,0,0,2.716-5.757,6.148,6.148,0,0,0-1.009-2.741,6.014,6.014,0,0,0-2.932-2.187,6.164,6.164,0,0,0-3.91-.1,6.067,6.067,0,0,0-3.559,3.072,2,2,0,1,0,3.453,2.019,5.486,5.486,0,0,1,.278-.5c.049-.076.1-.149.152-.224.184-.27-.33.382-.1.131.1-.112.2-.225.316-.33.058-.055.123-.1.181-.159.154-.145-.471.331-.154.124.117-.077.234-.153.358-.219.067-.036.135-.067.2-.1.287-.144-.508.186-.2.088a5.005,5.005,0,0,1,.845-.205l-.532.071a4.586,4.586,0,0,1,1.135,0l-.532-.071a4.829,4.829,0,0,1,.714.154c.109.033.215.072.323.11.306.107-.266-.107-.26-.112a1.271,1.271,0,0,1,.181.085,5.432,5.432,0,0,1,.553.332c.227.151-.394-.324-.232-.18.038.034.079.065.117.1a2.973,2.973,0,0,1,.233.23c.033.036.063.073.095.11.176.2-.311-.427-.193-.25.052.078.107.153.157.233.106.171.175.365.281.534,0,0-.223-.565-.124-.289.016.047.035.092.051.139.032.093.062.187.089.282a4.9,4.9,0,0,1,.132.644l-.071-.532a4.61,4.61,0,0,1,.006,1.138l.071-.531a4.033,4.033,0,0,1-.1.5c-.023.087-.048.173-.078.258-.012.037-.028.074-.04.112-.087.267.206-.441.121-.284s-.152.305-.246.45c-.022.033-.047.066-.069.1-.146.237.3-.36.183-.233-.064.067-.12.142-.185.209s-.122.117-.184.176c-.293.278.4-.273.124-.09a4.875,4.875,0,0,1-.5.3c-.389.191.448-.161.107-.043-.109.038-.218.077-.33.109a5.745,5.745,0,0,1-.735.154l.532-.072a4.592,4.592,0,0,1-1.129.041l.532.072a5.009,5.009,0,0,1-.74-.153c-.068-.02-.28-.133-.351-.119.012,0,.486.223.26.107-.057-.029-.115-.055-.172-.086-.1-.053-.2-.11-.289-.171-.041-.027-.08-.056-.121-.083-.205-.138.235.182.234.181a5.641,5.641,0,0,0-.447-.44c-.162-.175.185.246.185.246-.007-.034-.061-.081-.08-.11-.056-.084-.112-.167-.163-.254s-.1-.174-.142-.264c-.019-.04-.036-.081-.056-.12-.11-.212.125.3.124.3a3.227,3.227,0,0,0-.179-.558,5.17,5.17,0,0,1-.107-.563l.071.532a5.057,5.057,0,0,1,0-1.3l-.072.532a3.668,3.668,0,0,1,.173-.722,2.012,2.012,0,0,0-1.4-2.46A2.051,2.051,0,0,0,158.532,118.173Z"/><path class="h" d="M244.47,46.325c1.077-2.96,5.165-13.593,4.211-15.894-2.246-3.2-22.629,4.884-31.744,10.864a35.681,35.681,0,0,1,13.455,8.325,43.2,43.2,0,0,1,9.167,13.325C241.193,57.22,243.394,49.286,244.47,46.325Z"/><path class="h" d="M156.645,46.325c-1.076-2.96-5.165-13.593-4.21-15.894,2.245-3.2,22.629,4.884,31.744,10.864-10.6,3.608-18.25,11.877-22.622,21.65C159.922,57.22,157.722,49.286,156.645,46.325Z"/><path class="b" d="M246.4,46.857c1.212-3.323,2.459-6.638,3.419-10.046.692-2.456,2.291-7.045-.729-8.568-2.537-1.28-6.1-.227-8.651.458a87.526,87.526,0,0,0-12.12,4.415,83.527,83.527,0,0,0-12.39,6.452,2.027,2.027,0,0,0,.477,3.655c9.892,3.434,17.175,11.34,21.427,20.731.74,1.635,3.219,1.055,3.656-.477,1.58-5.541,2.962-11.194,4.911-16.62.871-2.427-2.992-3.472-3.857-1.063-1.949,5.426-3.331,11.079-4.911,16.619l3.655-.477c-4.693-10.365-12.97-18.8-23.817-22.57l.478,3.656a87.426,87.426,0,0,1,20.859-9.665,26.983,26.983,0,0,1,8.019-1.64c.571,0-.2-.111.284.039.357.109.281.208.057-.014.052.051.291.263.047,0l-.127-.1q.356.356-.3-.577a1.549,1.549,0,0,1,.058.241c-.046.025.013-.469-.025.064a21.142,21.142,0,0,1-.785,4.1c-.967,3.506-2.253,6.911-3.5,10.325C241.659,48.216,245.523,49.26,246.4,46.857Z"/><path class="b" d="M158.574,45.794c-1.094-3-2.213-5.994-3.131-9.056-.246-.823-.48-1.65-.683-2.484-.093-.378-.18-.756-.257-1.137-.034-.168-.177-1.024-.151-.814-.038-.311-.038-.62-.06-.931a2.215,2.215,0,0,1,.012-.316c-.042.594-.058.191-.011.127.124-.169-.558.683-.433.607s.28-.078-.191.068c.112-.035.227-.066.338-.1.507-.167-.268-.025.209-.034.24-.005.477-.018.717-.013a9.671,9.671,0,0,1,1.6.157,40.626,40.626,0,0,1,4.4,1.065,88.883,88.883,0,0,1,11.06,4.175,81.005,81.005,0,0,1,11.176,5.916l.478-3.656c-10.844,3.758-19.135,12.21-23.817,22.57l3.655.477c-1.58-5.54-2.962-11.193-4.911-16.619-.864-2.4-4.73-1.368-3.857,1.063,1.949,5.426,3.331,11.079,4.911,16.62.434,1.521,2.916,2.114,3.656.477,4.243-9.387,11.537-17.3,21.426-20.731a2.028,2.028,0,0,0,.478-3.655,80.365,80.365,0,0,0-10.874-5.78A97.253,97.253,0,0,0,162,29.074c-2.734-.811-6.184-1.919-9.053-1.175-3.565.925-2.68,4.848-2.008,7.549a113.3,113.3,0,0,0,3.782,11.409C155.592,49.256,159.459,48.22,158.574,45.794Z"/><path class="a" d="M173.235,241.578c-7.113,0-14.226,5.589-14.226,14.9,0,11.642,8.412,15.035,14.226,15.035,6.9,0,14.225-3.393,14.225-15.035C187.46,247.167,180.348,241.578,173.235,241.578Z"/><path class="b" d="M173.235,239.578a16.391,16.391,0,0,0-15.709,12.487c-1.658,6.945.449,15.04,6.719,18.958a18.222,18.222,0,0,0,15.775,1.314c6.96-2.731,9.879-9.867,9.4-17.021a16.541,16.541,0,0,0-16.188-15.738c-2.575-.028-2.577,3.972,0,4a12.359,12.359,0,0,1,11.893,9.723c1.2,5.289-.212,12.027-5.288,14.751a14.317,14.317,0,0,1-11.888.413c-5-2.129-7.1-7.271-6.932-12.573a12.489,12.489,0,0,1,12.215-12.314C175.807,243.55,175.814,239.55,173.235,239.578Z"/></svg>